<?xml version="1.0" encoding="UTF-8"?>
<svg xmlns="http://www.w3.org/2000/svg" width="1600" height="1000" viewBox="0 0 1600 1000" preserveAspectRatio="xMidYMid meet">
  <title>Greece coastline (derived from GeoJSON)</title>
  <desc>High-precision coastline generated from countries GeoJSON (Natural Earth derivative).</desc>
  <rect width="100%" height="100%" fill="#e7f3fb"/>
  <g id="coastline">
    <path d="M734.985,348.462L744.213,348.084L748.668,346.736L750.305,346.826L752.614,347.313L753.564,347.513L755.727,347.509L757.857,347.058L758.837,346.495L761.123,344.215L762.61,343.54L764.149,343.51L768.944,344.182L769.182,344.215L771.955,346.714L773.708,347.058L774.26,346.693L775.728,345.229L776.358,344.722L776.721,344.666L777.624,344.717L777.936,344.606L778.176,344.142L778.313,343.068L778.442,342.741L780.215,341.929L783.475,342.664L784.738,342.385L785.267,342.269L786.06,341.452L786.287,340.506L786.293,339.608L786.41,338.92L787.034,338.137L789.398,336.477L789.404,336.469L789.411,336.46L790.261,334.907L792.502,332.738L793.359,331.455L793.476,330.822L793.486,330.548L793.541,329.168L793.794,328.375L794.287,327.815L795.322,327.043L795.898,326.613L797.807,325.574L801.827,324.389L802.125,324.164L802.768,323.44L803.028,323.281L803.489,323.444L803.684,323.845L803.788,324.268L803.944,324.505L806.028,325.634L806.496,325.811L807.814,325.337L810.074,323.276L811.509,322.608L812.931,322.483L813.423,322.544L814.146,322.634L816.522,323.397L818.438,323.643L819.016,323.811L819.178,324.134L819.269,325.234L819.399,325.522L819.795,325.57L820.321,325.229L821.51,325.19L823.101,324.906L823.886,324.962L824.458,325.242L825.789,326.113L826.503,326.384L828.367,326.466L829.374,326.354L830.25,326.126L831.458,325.759L832.458,325.751L834.51,326.061L835.894,325.979L836.859,325.597L837.082,325.51L838.16,324.604L839.238,323.216L839.381,322.534L839.329,321.784L839.543,321.176L840.498,320.913L841.225,321.094L841.292,321.183L841.589,321.577L841.868,322.224L842.355,322.884L843.472,323.888L844.29,324.298L844.972,323.802L845.693,322.116L846.29,318.893L846.55,312.278L846.621,311.989L847.206,309.633L847.896,309.022L849.07,307.985L850.066,307.806L851.901,307.475L857.615,307.912L870.071,309.845L872.707,309.538L874.123,309.118L874.811,308.725L875.37,308.145L875.701,307.332L875.798,305.806L876.013,305.165L876.922,304.291L878.324,303.395L879.792,302.764L880.909,302.686L882.071,303.508L882.662,304.473L883.318,305.105L884.649,304.945L885.773,304.33L887.682,302.932L888.877,302.543L895.065,302.725L899.209,304.88L901.313,304.962L902.092,304.453L902.274,304.335L903.852,302.733L905.066,302.287L907.151,302.27L909.216,302.746L910.235,302.478L911.657,300.101L912.599,299.646L913.709,299.702L915.041,299.551L916.339,299.217L917.352,298.724L919.054,297.142L919.56,297.212L922.515,299.386L923.444,299.321L924.489,298.273L924.84,298.035L925.184,297.957L925.483,297.758L925.71,297.16L927.1,298.087L927.846,298.234L928.548,297.888L928.931,297.255L928.963,296.544L928.795,294.685L928.639,291.992L930.476,291.129L932.983,291.351L934.853,291.906L935.34,292.296L935.62,292.782L935.892,293.142L936.36,293.181L936.542,292.868L936.814,291.55L937.074,291.017L937.996,290.205L938.085,290.148L939.133,289.472L940.321,288.964L941.419,288.826L942.432,289.975L943.659,290.765L943.717,291.498L943.575,292.209L943.685,292.673L944.269,292.873L944.704,292.73L945.114,292.491L945.659,292.409L947.341,292.608L947.899,292.548L950.01,291.914L950.978,291.815L952.302,292.036L953.237,291.828L954.517,289.997L955.906,289.685L957.718,288.977L959.023,290.162L959.803,292.361L960.004,294.685L960.186,295.374L960.446,295.764L960.77,296.094L961.108,296.579L961.335,296.826L961.933,297.207L962.173,297.489L962.244,297.905L962.089,298.832L962.134,299.139L963.102,300.04L963.959,300.252L966.147,300.218L965.764,301.054L967.212,301.054L968.446,301.235L969.595,301.785L970.823,302.893L972.953,305.654L974.323,306.883L975.57,306.939L976.109,305.723L975.94,304.265L976.135,303.149L978.576,302.976L979.888,302.508L980.512,302.378L981.356,302.482L983.278,303.677L993.545,308.055L994.577,307.834L994.895,307.838L995.084,308.055L995.571,308.885L995.818,309.17L998.162,310.274L998.415,310.394L999.623,311.418L1002.298,315.107L1003.519,315.846L1004.974,316.079L1006.448,315.971L1016.988,312.541L1018.598,312.26L1019.251,312.321L1019.744,312.477L1020.231,312.528L1020.848,312.286L1021.4,311.599L1021.809,310.675L1022.296,309.883L1023.147,309.594L1028.693,309.979L1029.31,310.195L1030.621,310.973L1031.219,311.141L1031.927,311.037L1032.355,310.744L1032.803,310.294L1033.576,309.724L1034.284,309.477L1036.466,309.313L1038.81,307.722L1039.453,307.471L1040.856,308.007L1042.7,310.061L1043.914,310.566L1044.81,310.381L1046.375,309.564L1047.252,309.572L1048.096,309.737L1048.791,309.65L1050.213,308.958L1051.889,307.825L1052.7,307.419L1058.071,306.169L1058.532,306.286L1058.922,306.069L1059.649,304.919L1060.616,302.794L1061.318,300.707L1061.649,300.201L1062.045,300.058L1062.363,299.863L1062.474,299.187L1062.279,298.68L1061.409,297.853L1061.143,297.472L1060.493,295.994L1060.604,295.431L1061.337,294.672L1061.565,293.61L1061.662,292.665L1061.578,291.706L1061.259,290.6L1060.909,290.205L1059.922,290.023L1059.571,289.732L1059.461,289.168L1059.558,287.845L1059.513,287.211L1058.935,285.066L1058.571,284.358L1058.032,283.716L1057.311,283.37L1056.428,283.196L1055.532,282.773L1055.065,282.077L1054.785,281.658L1054.486,280.674L1054.311,279.483L1054.35,278.266L1054.701,277.22L1055.129,276.733L1055.551,276.602L1055.98,276.579L1056.447,276.379L1058.136,275L1059.818,274.536L1063.259,274.427L1064.636,273.098L1065.539,273.165L1066.058,273.49L1067.727,275.406L1068.539,276.094L1069.857,276.479L1072.273,276.25L1073.922,276.094L1075.039,276.452L1076.734,278.035L1079.15,278.655L1080.254,279.133L1081.247,279.39L1081.059,280.618L1080.507,281.678L1084.072,284.376L1086.923,285.861L1087.547,286.512L1088.741,284.71L1088.728,285.34L1088.793,285.963L1088.936,286.525L1089.17,287.003L1088.891,288.001L1089.131,290.179L1088.741,291.012L1089.41,292.218L1089.715,293.671L1090.027,296.791L1091.047,300.88L1091.313,302.569L1091.326,304.339L1091.021,306.091L1090.449,307.527L1089.638,308.336L1088.469,308.452L1087.118,308.094L1085.923,307.41L1085.267,306.571L1082.072,309.996L1081.41,310.1L1081.137,310.372L1080.981,310.744L1080.631,311.141L1078.877,312.278L1077.221,313.773L1076.15,314.334L1072.169,314.74L1071.468,315.401L1072.442,316.847L1071.779,318.678L1071.5,320.296L1071.695,321.775L1072.442,323.22L1071.266,325.065L1071.266,325.747L1072.208,326.018L1072.656,326.397L1071.585,328.56L1071.753,329.767L1072.63,331.644L1073.169,332.527L1074.838,333.345L1074.89,334.317L1074.455,335.294L1073.922,335.737L1072.981,335.849L1072.435,336.176L1072.26,336.709L1072.442,337.445L1073.098,338.292L1073.708,338.589L1073.89,338.877L1073.26,339.72L1072.377,340.412L1070.585,341.263L1069.825,342.041L1070.007,342.393L1070.383,342.969L1070.429,343.506L1069.591,343.747L1069.058,343.656L1068.617,343.403L1068.292,343.025L1068.071,342.556L1067.688,342.556L1067.175,344.211L1066.805,344.967L1066.357,345.448L1065.928,345.448L1065.851,345.104L1065.539,344.314L1065.545,345.186L1065.48,345.619L1065.208,345.808L1064.643,345.963L1064.597,346.358L1064.682,346.491L1064.844,346.513L1065.065,346.586L1064.441,346.882L1064.26,347.165L1064.214,347.715L1064.649,348.625L1061.272,351.551L1060.311,353.078L1059.779,355.291L1058.383,356.963L1056.454,357.91L1054.089,357.668L1054.273,357.334L1053.588,356.068L1053.435,354.367L1053.046,352.884L1051.696,352.236L1051.696,351.668L1052.566,351.689L1053.706,351.52L1054.703,351.216L1055.132,350.841L1054.718,349.993L1053.772,349.864L1052.75,350.141L1052.095,350.533L1051.85,349.972L1051.696,349.344L1051.226,349.344L1051.226,349.966L1051.502,350.398L1051.696,351.148L1051.226,351.148L1050.254,350L1048.291,348.783L1046.215,348.164L1044.834,348.834L1043.781,348.55L1040.375,348.438L1039.655,347.982L1038.964,347.87L1034.5,348.266L1031.923,347.735L1029.157,346.748L1026.478,346.238L1024.131,347.13L1023.609,346.991L1022.285,346.714L1020.971,345.994L1020.05,345.118L1019.084,344.496L1015.939,343.806L1014.865,343.725L1012.559,342.676L1009.911,340.788L1007.323,339.945L1005.217,342.019L1004.787,342.019L1004.756,341.6L999.848,340.706L998.528,339.955L997.731,339.352L997.168,339.258L996.918,339.027L997.025,337.995L997.301,337.304L997.807,336.765L998.452,336.413L999.173,336.288L998.007,335.495L997.194,335.099L992.096,335.149L990.951,335.434L990.981,336.806L989.677,338.012L988.905,338.459L987.975,338.564L988.435,340.104L987.852,340.754L986.748,340.869L985.597,340.835L984.769,341.102L982.718,342.27L981.716,342.541L979.921,343.823L978.065,346.356L976.056,348.124L973.78,347.13L971.428,348.185L970.196,348.266L969.025,347.698L969.321,347.478L969.352,347.404L969.49,347.13L967.307,345.943L965.962,347.201L965.589,347.698L965.164,347.698L964.597,346.363L963.932,345.213L963.124,344.158L963.411,343.109L962.5,342.669L961.825,342.036L961.406,341.146L961.268,339.955L958.195,339.42L957.402,339.132L956.804,339.61L956.078,339.718L955.378,339.955L954.825,340.835L953.506,340.26L951.773,340.469L950.28,341.224L949.052,343.082L946.25,345.402L945.31,345.943L946.066,346.579L946.547,347.343L946.48,347.992L945.131,348.367L944.89,348.655L944.87,349.097L945.115,349.655L945.473,349.888L946.516,349.807L947.069,349.966L938.933,354.789L932.583,358.548L930.256,359.081L927.551,358.923L924.805,358.191L917.749,354.417L916.512,354.127L915.74,353.945L913.679,354.188L910.212,355.633L908.806,356.557L907.487,357.739L906.628,359.081L906.295,361.24L906.827,363.04L907.947,364.281L909.389,364.739L910.309,365.359L911.368,366.851L912.257,368.63L912.636,370.135L913.035,370.246L915.203,372.134L916.031,372.424L917.023,372.518L917.974,372.427L918.68,372.134L919.084,373.023L920.316,374.194L920.357,374.961L919.835,375.31L915.499,375.859L914.543,376.83L914.292,378.421L914.773,380.599L917.381,384.549L917.994,385.156L919.989,386.14L920.357,386.543L922.75,387.097L923.394,387.359L924.115,387.036L925.818,386.788L926.401,386.285L926.39,385.512L926.012,384.458L925.112,382.853L925.583,382.292L925.112,381.727L926.38,381.607L927.474,383.017L929.008,386.285L929.76,387.231L931.054,388.466L932.506,389.177L933.733,388.536L934.393,388.909L936.295,389.553L936.965,389.664L937.404,390.066L938.105,391.918L938.478,392.478L940.329,392.518L942.395,394.811L945.811,399.84L949.748,403.857L950.407,406.048L948.352,407.7L945.683,408.332L944.512,408.054L944.026,406.857L943.643,405.386L942.738,404.529L941.618,403.927L940.636,403.211L938.979,400.703L937.773,398.111L936.28,395.944L933.733,394.731L928.671,393.812L926.871,393.044L925.276,391.938L922.985,389.573L921.676,388.536L920.802,388.194L918.439,388.536L916.133,387.916L915.203,387.973L911.981,389.567L910.56,389.855L908.729,389.05L908.545,389.503L908.116,390.217L907.87,390.177L906.796,391.737L906.413,393.148L906.541,394.493L907.533,397.11L907.84,397.589L908.3,398.101L910.437,399.535L910.856,400.874L911.751,401.919L912.646,402.471L913.065,402.341L917.35,404.382L918.138,404.087L919.176,404.499L920.219,405.319L921.016,406.269L921.937,406.948L924.422,407.841L925.112,408.824L925.035,409.539L924.243,410.321L924.253,411.117L924.611,411.601L925.736,412.42L925.971,413.055L925.772,413.746L925.327,413.866L924.882,413.856L924.672,414.17L924.836,415.109L925.25,415.489L925.802,415.409L926.401,414.988L926.385,415.827L926.431,416.391L926.569,416.822L926.871,417.232L925.194,418.664L924.913,419.392L925.583,420.079L925.583,420.64L924.366,420.676L923.772,421.187L923.957,421.697L925.112,421.76L925.112,422.374L921.891,422.467L920.618,422.147L920.817,421.2L920.817,420.64L920.357,420.64L919.866,421.047L919.421,420.933L919.232,420.379L919.539,419.518L917.309,418.234L916.921,418.093L916.629,417.196L915.918,416.591L915.059,416.394L914.61,416.772L914.548,417.152L914.773,417.843L912.462,413.976L912.165,413.055L912.564,411.691L912.677,410.869L912.395,410.502L911.736,410.228L911.368,409.576L911.132,408.813L910.867,408.212L905.273,400.667L903.156,399.227L901.959,398.878L896.78,398.456L893.251,396.413L890.383,395.622L887.857,395.743L885.766,397.063L884.201,399.84L884.047,401.447L884.533,402.836L885.167,404.195L885.489,405.707L885.679,406.215L886.164,406.466L887.438,406.576L888.005,406.747L888.373,407.165L888.956,408.212L892.316,413.065L894.177,415.099L900.701,418.694L904.945,419.712L905.109,420.212L905.109,420.926L905.303,421.76L905.896,422.748L906.643,423.448L907.635,423.861L908.944,423.998L909.823,424.268L909.343,424.858L908.177,425.458L907.011,425.728L901.566,424.855L892.423,420.896L890.889,420.64L886.21,421.427L885.489,421.76L885.827,420.853L886.63,419.298L886.809,418.35L886.609,417.67L885.699,416.388L885.489,415.88L884.993,413.886L883.889,412.46L882.723,411.277L882.053,409.994L882.912,407.339L883.224,404.201L882.851,401.276L881.624,399.227L879.082,397.77L877.702,397.237L875.37,396.688L874.291,396.024L873.274,395.568L872.19,395.85L868.922,393.406L868.283,393.326L867.619,392.719L866.146,392.37L864.663,391.787L863.518,389.687L860.562,387.359L859.366,386.795L858.277,386.614L855.807,386.795L856.405,385.496L855.899,384.149L854.048,381.727L854.242,381.657L854.411,381.664L854.503,381.583L854.488,381.213L852.207,378.582L851.624,377.23L853,376.649L857.014,376.413L859.161,375.99L860.092,375.236L860.501,374.503L861.268,373.901L861.774,373.053L861.38,371.569L859.846,370.593L859.448,370.438L859.171,370.185L859.289,369.62L859.662,368.69L858.67,366.579L857.208,365.447L855.485,365.224L853.659,365.871L854.104,367.438L853.951,368.701L853.445,369.684L852.8,370.438L851.803,370.953L851.215,371.377L851.266,371.569L849.993,371.555L849.456,371.377L848.904,370.953L847.661,371.804L846.869,372.841L846.654,374.072L847.145,375.526L846.756,375.526L846.286,374.961L846.286,376.141L845.897,376.141L845.897,375.526L845.437,375.526L845.176,376.501L844.67,376.447L844.005,375.936L843.29,375.526L843.259,375.135L842.318,375.189L841.326,376.03L841.234,377.032L842.431,377.725L841.848,377.792L841.449,377.994L841.219,378.431L841.152,379.217L840.886,379.654L840.314,379.5L839.383,378.905L837.88,378.955L837.103,379.271L836.387,380.034L837.287,380.861L837.936,382.033L838.248,383.34L838.105,384.545L838.862,385.244L839.475,386.191L840.211,387.01L841.367,387.359L841.541,388.218L840.692,390.127L838.994,393.044L837.092,398.714L837.123,399.659L834.715,404.89L834.536,406.757L835.016,408.128L835.671,409.499L835.998,411.371L835.742,413.248L835.896,414.117L836.642,414.477L836.924,414.885L837.716,417.232L840.999,420.039L841.572,420.356L841.919,420.673L843.412,421.18L843.76,421.477L843.893,421.777L844.476,421.737L844.619,422.067L844.547,423.568L844.599,423.895L844.619,423.998L845.427,426.948L845.897,427.961L846.552,428.837L848.924,430.872L850.336,431.652L851.225,432.574L852.8,434.671L853.424,435.726L853.951,437.136L854.334,438.779L854.488,440.528L854.774,441.831L856.666,446.482L858.128,451.322L859.028,452.862L859.872,453.727L863.139,455.896L866.345,457.212L868.769,459.098L868.953,459.287L869.229,459.644L870.001,462.119L870.727,463.142L876.086,469.248L876.894,470.934L879.88,473.83L881.194,478.211L884.339,484.406L884.431,485.458L883.771,485.884L881.762,487.75L880.535,488.172L878.142,488.535L876.945,488.904L876.009,489.332L876.347,489.523L876.608,489.715L876.874,489.869L877.298,489.932L877.298,490.44L876.751,490.611L876.291,490.888L875.917,491.204L875.626,491.54L874.859,491.277L873.463,491.375L872.021,491.767L871.101,492.37L870.088,492.858L868.621,492.772L866.1,492.094L866.688,490.957L867.424,489.932L867.087,488.831L867.925,488.086L870.001,487.12L869.991,488.159L869.153,491.54L873.622,489.079L874.291,488.172L873.862,487.417L874.225,487.157L874.828,487.203L875.15,487.394L875.35,487.743L875.795,487.288L876.25,486.392L876.475,485.458L876.168,484.578L874.542,481.826L873.862,481.027L874.133,479.687L873.458,478.247L872.343,476.923L871.29,475.942L870.088,475.089L868.999,474.703L864.121,474.27L864.075,473.989L864.152,473.615L863.998,473.219L863.692,472.74L863.047,471.434L862.71,471.053L862.25,470.974L860.562,471.053L859.136,470.677L858.803,470.772L859.243,471.553L859.243,472.108L858.609,472.769L858.374,473.728L858.568,474.703L859.243,475.436L857.76,475.803L855.285,476.054L852.938,476.629L851.911,477.953L851.788,481.093L851.911,482.083L853.659,487.12L854.048,487.12L854.539,486.26L855.347,485.458L855.101,484.588L855.423,484.538L855.93,485.082L856.236,486.012L856.666,485.458L857.233,486.781L857.464,488.363L857.842,489.873L858.814,490.987L858.803,490.604L858.885,490.512L859.028,490.522L859.243,490.44L858.982,489.889L858.814,489.332L860.388,490.367L861.155,491.751L861.728,493.171L862.71,494.356L862.326,495.364L862.418,495.581L862.71,496.016L860.726,497.198L860.245,497.968L860.562,499.274L863.794,497.316L865.502,496.756L867.424,496.566L867.424,497.066L866.898,497.675L864.857,498.777L864.295,499.317L864.029,499.896L863.569,501.534L863.282,502.106L862.848,502.711L862.623,502.958L862.342,503.264L861.861,503.691L861.493,503.777L860.578,503.615L860.092,503.691L859.673,504.072L859.335,504.257L858.814,504.296L859.1,505.134L859.243,505.446L858.343,505.529L857.08,506.307L856.451,506.495L855.694,506.327L854.871,505.985L854.027,505.775L853.189,505.946L852.892,506.531L852.57,508.364L852.125,508.752L850.561,508.804L850.049,509.12L849.763,509.855L848.863,509.816L847.411,510.18L846.035,510.309L845.437,509.553L845.13,508.903L844.471,509.097L843.29,509.855L842.753,509.652L841.694,508.919L841.367,508.752L841.244,508.535L839.056,506.909L838.534,507.024L837.384,507.852L837,508.239L836.494,508.594L835.804,508.752L835.18,508.798L834.689,508.949L834.26,509.284L833.856,509.855L833.61,509.639L832.991,509.254L832.991,511.458L835.998,510.959L835.998,511.458L834.802,512.269L835.395,513.224L836.617,513.568L837.287,512.561L837.716,512.561L837.287,513.71L838.212,513.667L839.046,513.414L839.751,513.313L840.283,513.71L843.371,512.114L844.149,512.062L845.667,514.563L847.002,516.21L847.687,516.623L848.352,517.371L848.904,517.62L849.41,517.565L850.632,517.122L851.266,517.014L852.105,517.269L853.128,517.919L854.027,518.804L854.488,519.768L855.766,518.473L856.436,518.139L857.484,518.116L858.159,518.427L859.396,519.522L860.332,519.768L863.855,519.817L865.471,520.44L866.565,521.971L868.518,528.299L869.398,529.16L870.594,529.281L871.208,529.055L871.955,528.309L872.66,527.949L873.448,528.044L874.296,527.926L875.15,526.914L873.939,526.089L873.397,525.863L874.567,525.332L875.708,525.598L877.763,526.914L878.776,527.277L880.862,527.572L882.053,528.014L882.999,528.77L883.644,529.814L883.925,530.93L883.771,531.909L883.009,532.697L882.089,533.145L881.261,533.93L880.765,535.748L881.394,534.813L882.145,534.777L882.912,535.303L883.557,536.049L884.232,536.624L885.919,537.033L886.809,537.445L886.809,537.99L886.256,538.2L884.814,538.229L884.201,538.487L883.679,539.088L883.521,539.611L883.879,539.993L884.861,540.134L889.125,539.935L895.465,541.032L896.253,540.435L896.948,539.343L898.472,540.193L900.614,542.375L899.326,543.207L898.866,543.423L898.866,544.02L899.648,544.203L900.292,544.556L900.538,545.049L900.154,545.665L900.154,546.214L902.102,547.183L905.109,551.798L907.441,553.376L908.376,553.425L911.966,552.828L913.413,553.715L914.114,553.875L920.163,556.458L921.446,556.654L922.586,557.045L923.588,557.976L925.112,559.982L928.088,562.404L928.579,562.964L928.845,563.465L930,563.94L930.256,564.6L930.123,565.244L929.939,565.846L930.031,566.435L930.727,567.036L930.062,567.293L929.694,567.908L929.499,568.779L929.397,569.81L929.008,568.695L928.037,568.815L924.974,570.502L925.035,572.139L925.971,575.56L926.237,577.05L926.83,578.16L927.434,578.997L927.72,579.669L927.551,580.412L926.707,582.125L926.401,582.929L926.411,583.61L926.575,584.395L926.661,585.273L926.401,586.246L927.096,586.207L927.827,586.43L928.385,586.946L928.579,587.778L928.318,588.2L926.401,588.912L926.851,589.437L927.413,589.823L928.108,590.017L929.008,590.001L928.579,590.597L928.927,590.668L929.867,591.089L929.484,591.788L929.392,592.352L929.545,592.831L929.867,593.262L929.545,593.453L929.285,593.653L929.116,593.945L929.008,594.398L930.502,595.33L930.982,596.074L931.156,597.388L931.079,599.095L930.808,599.988L929.397,601.501L930.256,601.996L930.256,602.587L929.397,602.587L929.397,603.082L929.796,603.143L929.857,603.389L929.796,603.76L929.867,604.216L929.791,604.009L929.765,603.776L929.683,603.76L929.397,604.216L930.195,604.991L929.668,605.87L928.579,606.871L927.72,608.008L927.004,607.511L924.601,606.516L923.609,606.335L922.504,605.951L922.085,604.959L922.106,601.996L921.676,601.996L920.807,602.477L920.219,601.007L919.539,597.653L919.298,597.86L918.68,598.248L918.225,596.922L917.217,595.602L916.082,594.773L915.203,594.942L914.926,594.67L914.691,594.514L914.487,594.291L914.303,593.854L913.914,593.854L913.556,595.53L912.922,595.537L912.257,595.246L911.777,596.029L911.674,595.492L911.628,595.077L911.439,594.87L910.867,594.942L911.265,593.961L910.989,593.116L909.629,591.63L909.466,590.114L906.848,586.249L906.628,585.108L905.569,584.602L904.511,584.835L903.422,585.335L902.297,585.652L902.271,585.257L902.297,585.108L902.9,584.835L903.094,584.609L903.156,584.07L902.205,584.472L901.663,584.012L901.182,583.305L900.384,582.929L899.484,582.91L898.712,582.783L898.068,582.455L897.577,581.846L899.832,579.782L900.4,578.601L899.94,577.193L899.357,576.595L898.932,576.556L898.533,576.758L898.007,576.894L895.619,576.894L894.969,577.063L894.555,577.439L894.238,577.816L893.911,577.985L892.418,578.072L891.763,578.257L891.104,578.579L888.711,580.736L887.668,581.249L889.815,581.846L888.527,582.335L883.557,581.846L877.083,582.391L874.721,583.571L872.849,585.027L871.776,585.86L868.743,587.377L866.1,586.246L865.517,586.508L865.021,586.479L864.474,586.333L863.784,586.246L863.553,586.664L863.569,587.578L863.477,588.498L862.925,588.912L862.526,589.677L862.802,591.225L863.62,592.43L864.857,592.174L865.952,592.747L867.45,592.941L868.938,592.747L870.001,592.174L872.021,594.158L873.126,595L874.291,595.485L874.015,596.268L873.918,597.009L874.015,597.679L874.291,598.248L873.432,598.41L872.282,599.125L870.886,599.354L870.687,599.61L870.625,600.111L870.431,600.909L871.996,602.109L872.844,602.51L873.862,602.587L873.279,604.397L873.126,605.621L873.34,606.823L873.862,608.551L873.003,608.551L873.172,610.268L873.427,610.972L874.777,611.514L877.298,613.476L877.763,612.885L880.09,615.169L880.366,615.269L880.688,615.327L881.194,615.592L882.457,616.649L883.127,617.056L883.986,617.21L885.474,616.243L885.397,614.134L884.232,612.072L882.447,611.259L882.447,610.717L883.511,609.855L884.687,609.364L887.882,609.09L888.532,610.039L888.235,612.153L887.386,614.366L886.348,615.592L886.977,616.262L887.652,616.74L888.43,617.049L889.35,617.21L889.35,617.8L888.133,618.236L887.668,618.294L887.668,618.835L888.097,618.835L888.634,619.077L890.245,619.377L891.661,620.324L892.939,620.759L895.859,623.211L895.537,623.578L895.435,623.739L895.547,623.91L895.859,624.293L895.859,624.834L894.586,625.523L890.889,626.778L890.592,626.794L883.142,627.165L882.053,626.991L882.145,627.271L882.191,627.519L882.273,627.773L882.447,628.072L880.177,627.757L879.338,627.853L879.446,628.661L877.298,629.153L877.283,629.916L877.727,630.283L878.377,630.35L879.016,630.234L878.622,630.82L878.622,631.309L879.103,631.383L880.299,631.901L879.318,632.364L878.162,632.486L875.82,632.386L874.521,632.627L874.481,633.296L875.053,634.319L875.626,635.627L874.322,635.897L873.427,635.878L872.65,635.592L871.719,635.087L871.719,634.547L873.003,634.547L873.003,634.01L872.266,633.804L871.392,633.965L870.584,633.881L870.001,632.981L871.29,633.521L870.983,632.775L870.523,632.229L869.153,631.309L868.662,631.827L868.033,631.846L867.424,631.476L867.424,631.309L867.235,628.812L867.394,627.847L868.094,628.368L868.8,628.761L869.444,628.178L869.904,627.074L870.001,625.909L871.377,626.711L871.719,626.991L871.719,626.498L871.413,625.774L871.321,625.285L871.29,624.563L871.126,624.087L870.717,623.89L870.242,623.755L869.827,623.455L868.938,623.011L866.729,623.584L865.716,623.211L866.565,622.67L865.716,621.049L864.152,621.977L863.538,622.47L863.139,623.211L862.26,620.356L861.621,619.325L860.562,618.294L860.271,618.216L859.54,618.332L859.243,618.294L859.008,618.042L858.895,617.688L858.854,617.365L858.814,617.21L857.903,616.824L857.356,616.708L856.666,616.72L857.448,616.946L857.709,617.201L857.954,617.8L856.697,617.259L855.607,617.394L854.626,617.991L853.659,618.835L853.23,618.358L851.481,617.21L851.619,616.92L851.911,616.134L851.113,615.788L850.392,615.198L850.008,614.54L850.193,613.966L849.533,612.985L848.904,612.343L847.534,612.914L846.398,613.611L845.642,614.763L845.437,616.72L845.575,617.123L846.158,618.074L846.286,618.564L846.214,619.077L845.913,620.002L845.897,620.459L846.163,621.339L846.49,621.803L846.833,622.148L847.145,622.67L847.217,623.059L847.145,624.563L847.293,624.795L848.055,625.42L848.014,626.231L847.585,627.28L847.626,628.072L850.919,632.016L851.481,632.386L851.052,633.521L851.911,633.521L851.911,634.01L851.481,634.01L851.481,634.547L852.141,635.183L853.644,637.902L854.089,639.338L856.236,643.22L856.451,643.442L856.962,644.212L857.28,645.04L856.881,645.425L856.574,645.868L856.374,646.898L856.236,648.947L856.748,649.938L857.934,650.198L859.233,650.031L860.092,649.726L860.133,650.092L860.245,650.313L860.393,650.512L860.562,650.804L860.117,651.083L860.194,651.16L860.562,651.346L860.092,651.935L861.166,652.326L861.682,652.977L861.524,653.361L860.562,652.958L861.13,654.361L862.822,656.869L862.71,657.798L863.216,659.127L863.569,660.529L863.242,660.494L862.572,660.551L862.25,660.529L862.403,660.916L862.884,661.755L863.139,662.094L863.262,661.835L863.308,661.78L863.364,661.761L863.569,661.604L863.773,662.331L863.86,663.006L863.794,663.649L863.569,664.292L864.198,665.328L865.45,668.493L865.911,669.165L865.716,669.778L866.555,671.159L868.283,672.919L868.692,673.768L868.835,674.65L868.6,675.333L867.895,675.595L867.895,676.083L868.554,676.122L869.04,676.227L870.001,676.668L869.735,677.268L869.014,677.817L868.764,678.276L868.672,678.717L868.677,678.965L868.723,679.208L868.764,679.616L868.401,680.465L867.598,680.392L866.708,679.865L866.1,679.348L865.563,680.219L864.776,681.039L864.443,681.817L865.287,682.557L865.154,682.819L864.98,683.367L864.857,683.625L866.565,683.625L864.995,685.012L865.072,687.033L866.003,689.117L867.24,691.11L867.895,692.495L868.161,692.741L869.408,693.275L870.119,693.829L871.29,694.367L871.556,694.746L871.709,695.131L871.965,695.417L872.573,695.484L871.99,695.911L871.719,696.019L871.719,696.506L872.098,696.948L872.144,697.355L871.873,697.737L871.29,698.106L872.374,699.69L874.256,700.86L875.626,702.125L875.15,703.968L873.003,702.9L872.374,703.727L871.586,703.847L868.784,703.136L868.217,702.322L867.757,701.41L866.995,700.771L866.995,700.287L867.363,699.235L866.923,697.985L866.039,696.941L865.072,696.506L862.372,697.107L861.099,697.116L860.562,696.261L860.271,694.988L858.859,691.957L858.384,691.161L857.668,690.47L854.958,688.486L855.853,687.549L855.561,686.628L852.938,684.218L852.601,684.1L852.35,684.697L851.481,685.768L851.205,685.35L851.128,684.658L851.481,682.825L851.343,681.636L850.76,679.942L850.315,677.102L849.441,675.716L848.076,674.873L846.286,674.528L843.075,674.458L839.117,674.931L836.279,676.533L836.387,679.878L834.316,681.364L833.518,682.477L832.991,684.209L833.948,684.203L834.546,684.744L834.791,685.691L834.715,686.886L834.285,686.886L834.168,686.332L833.932,685.764L833.544,685.35L832.991,685.28L832.47,685.694L832.132,686.421L832.046,687.116L832.327,687.422L833.365,688.307L833.053,689.907L832.214,690.658L831.708,688.976L830.788,689.543L830.414,690.356L830.384,694.95L830.573,696.735L830.956,698.204L832.138,701.305L831.877,701.737L832.138,702.42L831.309,702.974L831.033,703.793L831.212,704.731L831.708,705.62L831.708,706.154L831.13,706.091L830.977,706.313L830.967,706.72L830.849,707.215L830.143,706.348L829.929,705.004L829.852,703.574L829.525,702.42L828.609,701.648L826.416,700.764L825.659,699.702L825.235,699.702L824.59,700.376L823.961,700.224L823.368,699.616L822.872,698.929L822.274,697.765L822.325,696.903L822.714,696.057L823.087,694.95L824.1,695.242L824.391,694.313L824.13,693.027L823.481,692.228L823.793,691.846L824.376,690.677L823.087,690.677L823.205,689.671L823.118,688.46L823.333,687.53L824.376,687.422L824.376,686.886L823.148,686.453L823.286,685.114L824.376,682.557L822.53,682.879L821.323,680.969L820.341,678.506L819.191,677.156L819.288,675.627L818.327,673.621L813.919,667.544L812.579,666.847L810.999,668.043L809.343,666.786L808.663,666.003L808.386,664.826L808.53,664.864L808.836,664.429L809.133,663.726L809.281,662.945L809.348,662.049L809.649,660.519L809.747,658.378L809.624,657.82L805.38,656.86L803.023,656.722L801.887,657.052L799.51,658.535L797.147,659.201L796.427,660.014L796.063,661.063L795.429,668.57L795.112,669.526L795.082,670.238L795.348,671.143L795.736,671.826L795.91,672.516L795.511,673.455L796.585,674.493L797.25,674.931L798.129,675.065L798.129,675.595L797.286,675.662L796.549,675.991L796.156,676.521L796.37,677.156L795.971,677.868L793.359,680.296L793.006,680.698L792.622,680.962L792.085,680.95L791.001,678.726L790.797,678.544L788.864,674.528L787.739,674.605L786.788,674.829L785.182,675.595L784.436,674.809L782.958,674.209L782.564,673.455L782.176,673.455L781.613,673.788L781.271,673.19L780.938,672.184L780.427,671.312L780.672,670.567L780.626,669.922L780.473,669.155L780.427,668.043L780.621,667.327L781.45,666.003L781.746,665.312L781.777,663.994L781.317,662.849L780.407,662.276L779.139,662.679L779.732,662.375L779.921,662.126L779.998,661.604L779.435,661.566L779.123,661.774L778.75,662.679L778.31,659.905L776.705,657.843L774.823,655.889L773.524,653.448L772.962,650.339L772.829,647.177L773.258,644.334L774.373,642.141L778.32,638.94L780.038,637.108L780.887,634.547L780.611,631.363L780.018,629.597L779.568,628.252L775.314,620.06L772.921,616.427L771.724,615.15L766.299,611.282L765.005,610.62L764.3,609.903L763.078,608.286L762.439,607.698L758.737,606.594L757.509,606.942L757.182,609.09L756.788,609.09L756.661,608.334L756.671,607.54L756.538,606.839L755.935,606.335L756.712,604.707L756.942,603.402L756.763,602.07L755.72,598.465L755.07,597.397L754.196,596.737L751.45,595.265L744.839,593.239L744.271,592.766L743.929,591.801L744.179,590.61L743.842,590.001L745.56,584.563L745.989,584.563L747.498,585.896L750.223,584.589L752.979,582.183L754.605,580.211L755.485,580.509L756.236,580.023L756.937,579.221L757.647,578.579L757.647,577.985L757.417,577.822L757.346,577.761L757.315,577.683L757.182,577.488L756.574,577.757L755.96,578.173L755.423,578.64L755.035,579.069L757.862,574.712L757.985,574.192L760.23,570.625L760.506,569.793L760.649,568.756L760.777,563.976L760.685,562.668L761.355,563.429L762.193,564.883L762.837,565.443L762.786,564.483L762.633,563.722L762.357,563.136L762.684,563.647L763.599,564.132L764.704,564.288L766.054,564.304L766.948,564.636L770.088,567.036L775.058,568.171L776.27,567.934L777.528,567.349L779.568,565.944L781.235,563.898L783.761,558.742L785.182,556.654L789.979,553.624L790.541,553.011L794.693,553.875L796.043,553.865L796.641,553.728L797.229,553.376L797.833,553.923L798.62,554.432L799.53,554.816L800.492,554.966L801.279,555.26L801.673,555.97L801.933,556.882L802.378,557.748L803.069,558.335L804.94,559.246L805.615,559.386L806.116,559.298L806.827,558.927L807.139,558.895L807.671,559.455L808.1,559.816L808.622,559.982L809.005,560.392L809.68,562.443L810.14,563.263L810.662,563.543L812.947,564.304L813.142,564.483L813.377,564.874L813.73,565.264L814.236,565.443L816.184,565.443L818.899,566.119L819.656,566.536L820.812,566.006L821.793,566.653L822.837,567.654L824.769,568.441L825.403,568.961L826.063,569.283L826.738,568.968L827.193,568.854L832.138,569.969L838.994,573.627L842.753,574.975L843.29,575.56L843.888,575.764L848.904,580.211L850.039,582.138L850.407,582.391L851.604,582.744L853.557,584.472L854.488,585.108L855.459,585.263L856.436,585.088L857.954,584.563L858.435,584.544L858.957,584.596L859.458,584.573L859.877,584.32L861.145,582.391L861.283,581.962L860.664,581.028L859.749,580.094L859.028,579.669L858.047,579.348L856.497,578.072L855.347,577.985L855.551,577.718L855.761,577.605L853.659,577.488L855.009,576.355L855.633,575.959L856.451,575.803L857.28,575.491L858.67,574.043L859.243,573.627L860.93,573.747L864.029,575.082L865.287,574.712L867.143,575.589L869.173,575.31L873.693,573.946L874.752,572.757L875.82,572.484L876.444,572.042L876.045,571.08L875.033,570.157L873.862,569.81L873.847,569.41L873.862,568.717L874.66,568.63L876.071,568.269L876.868,568.171L876.868,567.576L876.24,567.495L871.883,566.923L870.901,566.536L872.19,565.443L870.543,563.673L869.72,563.51L867.7,565.456L867.02,565.664L864.857,565.443L864.857,564.896L866.1,564.896L865.272,563.654L864.407,562.99L863.487,562.716L859.811,562.297L858.67,562.554L857.954,563.758L858.803,563.471L859.724,563.536L860.511,563.995L860.915,564.896L859.836,564.87L857.965,564.522L857.095,564.896L856.236,561.027L855.807,561.027L855.347,562.163L855.265,561.786L855.071,561.415L854.958,561.027L853.813,561.408L851.522,561.681L850.622,562.163L848.055,560.48L848.582,559.657L849.717,558.683L850.193,557.748L849.027,557.234L846.644,556.553L845.202,555.494L844.164,555.194L843.76,554.966L843.443,554.543L842.431,552.828L843.003,551.426L842.108,549.786L840.62,549.111L839.383,550.588L840.518,550.742L840.6,551.368L840.007,551.811L839.194,551.433L838.473,551.205L837.757,551.86L837.184,552.779L836.893,553.376L836.893,553.875L837.215,554.06L837.399,554.217L837.645,554.347L838.105,554.471L838.105,554.966L837.645,555.292L837.583,555.458L837.685,555.664L837.716,556.107L836.985,556.875L836.218,557.103L835.344,556.836L834.285,556.107L834.26,555.872L833.549,554.503L833.426,554.471L833.237,554.011L833.063,553.777L833.196,553.601L833.856,553.376L832.997,551.606L829.99,547.852L829.433,546.612L829.095,546.214L828.829,546.067L828.165,545.861L825.235,544.02L825.311,544.853L825.598,546.292L825.659,547.056L823.946,548.4L823.481,548.945L823.941,549.59L824.253,549.894L824.503,549.868L824.805,549.496L825.045,550.236L824.897,550.843L824.493,551.332L823.946,551.684L824.376,552.232L824.023,552.9L823.092,552.965L821.891,552.525L820.265,552.232L817.902,552.528L817.549,552.065L816.741,551.629L815.872,551.433L815.289,551.684L814.896,551.684L814.129,551.508L813.152,552.078L812.313,553.151L811.889,554.471L811.367,553.917L811.015,552.848L810.606,552.232L810.023,551.997L809.47,552.092L809.159,551.994L809.281,551.185L808.33,550.491L806.331,549.884L803.084,548.426L801.857,548.367L800.706,548.945L799.223,547.457L797.352,547.369L795.537,548.074L792.996,549.926L792.413,550.07L791.462,550.096L790.96,549.835L790.654,549.267L790.337,548.68L789.979,548.397L789.396,548.573L786.318,551.218L785.837,552.104L785.653,553.624L785.08,554.047L783.853,553.288L782.176,551.684L778.51,551.684L777.482,551.958L776.572,552.463L775.718,552.717L774.843,552.232L770.809,555.201L770.088,556.654L769.699,556.654L769.117,556.139L768.232,555.947L767.429,555.908L767.081,555.833L766.652,555.282L764.085,553.875L765.149,553.591L766.146,554.158L767.081,555.009L767.94,555.559L767.94,554.966L767.649,554.618L767.496,554.347L767.562,553.992L767.94,553.376L767.342,552.936L767.081,552.828L767.081,552.232L767.327,552.114L767.94,551.684L766.698,551.684L767.081,550.588L766.509,550.882L765.977,551.002L765.471,550.918L764.98,550.588L764.617,550.898L764.351,551.016L763.691,551.185L764.09,549.61L763.323,548.778L762.04,548.455L760.884,548.397L760.409,547.649L759.795,542.874L758.471,541.284L757.745,540.719L757.433,540.581L757.162,540.66L756.558,540.735L756.773,541.362L759.366,545.665L758.471,545.665L758.604,545.959L758.665,546.018L758.747,546.031L758.936,546.214L758.706,547.043L758.553,547.937L758.317,548.651L757.862,548.945L757.218,549.091L755.883,549.796L755.464,550.096L755.617,550.416L755.684,550.435L755.935,550.588L755.464,551.185L754.615,550.637L754.104,550.882L753.905,551.4L753.981,551.684L754.273,551.958L753.812,552.561L752.892,553.376L752.202,553.826L751.772,553.963L750.53,553.875L750.024,553.581L749.553,553.102L749.083,553.004L748.561,553.875L748.878,554.187L749.267,554.386L749.732,554.471L749.425,554.559L748.658,554.784L748.167,555.253L748.132,556.107L746.945,556.006L746.506,555.194L746.332,554.152L745.989,553.376L745.238,553.102L743.32,553.056L742.522,552.828L743.259,552.483L743.811,552.075L744.041,551.479L743.842,550.588L743.228,550.957L742.983,551.185L743.535,549.933L743.842,549.496L743.658,550.057L744.302,550.396L745.023,549.913L745.565,549.215L745.989,548.397L744.859,547.477L744.379,547.535L743.842,548.397L743.121,548.067L742.62,547.467L742.308,546.644L742.129,545.665L742.323,545.502L742.384,545.496L742.425,545.421L742.522,545.068L743.151,545.881L743.877,546.266L744.471,546.057L744.701,545.068L743.842,545.665L744.133,544.608L743.54,543.113L743.842,542.375L743.842,541.777L743.243,541.774L742.834,541.637L742.129,541.284L742.706,540.924L742.988,540.797L743.412,540.735L743.162,540.565L742.804,540.248L742.522,540.134L743.121,538.847L743.289,538.2L743.197,537.719L742.614,537.356L742.124,537.68L741.633,538.209L741.05,538.487L740.82,538.798L740.135,539.369L739.419,539.729L739.086,539.366L738.948,538.631L738.365,537.474L738.227,536.598L738.713,533.315L738.718,531.568L737.399,530.122L736.422,527.101L735.85,526.413L733.405,526.384L732.557,526.076L731.79,525.313L731.35,524.32L729.826,517.811L729.213,516.525L728.364,515.862L727.443,516.177L726.523,517.132L725.766,518.283L725.316,519.168L724.856,518.293L724.483,518.44L724.089,518.844L723.598,518.716L722.923,519.296L722.673,518.965L722.555,518.234L722.32,517.62L720.162,515.862L720.162,515.36L720.643,514.327L720.924,512.85L721.42,511.53L722.55,510.959L723.9,511.008L724.621,510.939L724.928,510.683L724.723,510.171L724.237,509.711L723.721,509.382L722.371,508.742L721.839,507.523L721.717,506.064L721.931,504.842L722.703,503.316L723.041,503.911L723.445,505.252L724.457,505.946L725.674,506.353L726.86,505.746L727.73,504.552L728.364,503.191L728.793,503.191L728.998,503.832L729.069,504.263L729.008,504.572L728.793,504.842L728.906,504.98L729.1,505.144L729.141,505.43L728.793,505.946L730.067,505.966L731.125,505.814L731.877,505.164L732.183,503.691L732.613,503.691L733.221,504.523L733.855,504.559L734.622,504.306L735.619,504.296L736.463,504.621L737.061,505.006L737.762,505.315L738.887,505.446L739.051,505.962L738.846,507.096L738.774,508.239L739.301,508.752L740.155,508.969L740.988,509.514L742.522,510.959L742.599,510.23L742.753,509.816L743.018,509.553L743.412,509.254L743.412,508.752L742.926,507.714L743.596,507.204L744.762,507.254L745.774,507.875L747.247,509.639L747.273,509.855L747.661,510.082L748.014,510.217L748.316,510.013L748.561,509.254L748.045,508.791L747.83,508.417L747.651,507.201L747.431,507.126L747.15,507.204L746.879,506.997L746.081,505.591L745.974,504.743L746.419,503.691L746.086,503.04L746.281,502.313L746.756,501.883L747.273,502.086L747.216,500.182L745.688,498.109L742.522,494.91L742.078,495.427L741.842,495.953L741.847,496.493L742.129,497.066L741.27,496.724L740.958,496.842L740.636,496.967L739.516,498.224L740.835,499.274L737.368,498.777L737.368,498.224L736.596,498.04L735.86,497.517L735.282,496.993L735.011,496.816L734.264,497.237L733.661,496.882L733.242,496.144L733.073,495.413L733.196,495.413L733.385,495.064L733.932,494.91L733.932,494.356L733.467,494.356L732.858,494.761L732.153,494.781L731.478,494.445L730.972,493.754L730.501,493.754L730.143,494.564L729.023,495.203L728.793,495.71L729.059,496.513L729.755,496.668L730.036,497.053L727.423,497.013L728.364,496.566L728.256,496.016L728.231,495.236L728.057,494.702L727.505,494.91L727.52,494.597L727.459,494.406L727.423,494.267L727.525,494.169L727.505,493.754L726.968,493.665L726.635,493.78L726.431,494.037L726.216,494.356L726.993,492.578L726.748,491.224L726.012,490.736L725.316,491.54L724.928,490.987L724.682,491.57L724.314,492.021L723.808,492.364L723.169,492.647L723.169,493.25L724.089,493.464L723.844,494.139L723.823,495.064L723.598,496.016L723.138,496.608L722.637,496.947L722.187,497.379L721.931,498.224L721.031,497.616L721.077,498.442L721.169,498.81L721.42,498.869L721.931,498.777L724.846,501.189L726.078,501.79L726.462,502.363L726.6,502.935L726.411,503.191L725.863,503.053L724.733,502.373L722.887,501.758L722.489,501.81L721.931,502.086L721.901,502.442L721.267,503.398L720.525,504.033L720.162,503.438L719.973,502.685L719.518,502.136L719.083,501.692L718.884,501.258L718.812,500.777L718.669,500.514L718.526,500.34L718.454,500.133L718.592,499.6L718.899,499.274L719.191,499.037L719.313,498.777L718.679,496.072L717.472,494.139L715.806,492.719L713.776,491.54L711.776,489.978L706.873,483.746L705.017,482.459L704.423,481.766L704.648,481.027L704.331,480.288L704.188,479.34L704.27,478.406L704.648,477.706L704.648,477.101L703.892,477.441L703.253,477.537L702.787,477.28L702.501,476.546L701.57,477.085L700.675,477.045L699.832,476.602L699.065,475.942L697.306,476.695L694.749,475.387L692.735,472.978L692.602,470.442L691.753,469.625L691.282,468.596L690.607,467.789L689.165,467.62L689.165,467.064L689.595,467.064L689.595,466.558L689.084,465.913L688.388,464.652L687.882,464.288L688.961,463.937L690.27,463.976L691.134,463.751L690.919,462.625L690.311,461.97L687.882,460.35L687.882,459.843L688.971,459.903L689.753,460.112L690.362,460.052L690.919,459.287L690.919,458.73L690.27,458.273L689.165,457.736L688.286,457.696L688.312,458.73L687.759,458.213L687.038,457.769L686.317,457.666L687.023,457.01L685.842,456.721L684.753,456.602L683.735,456.692L682.728,457.01L683.214,456.35L683.479,455.598L683.582,454.722L683.551,453.671L684.016,454.225L684.446,454.188L684.87,453.767L685.305,453.17L685.33,452.891L685.279,451.836L685.305,451.448L685.428,451.395L686.026,450.97L686.164,450.941L685.76,449.288L684.717,448.541L683.648,448.222L683.157,447.824L682.948,447.485L681.961,446.648L681.639,446.482L680.923,446.3L680.401,445.901L679.921,445.32L677.139,444.682L675.697,444.127L674.966,443.649L674.613,443.712L674.327,443.652L675.346,443.008L677.45,443.717L679.95,444.527L682.833,446.045L684.626,447.669L685.905,448.264L686.899,448.015L687.119,447.585L687.093,446.99L687.165,446.362L687.658,445.813L688.165,445.64L688.697,445.64L689.243,445.813L689.795,446.151L689.983,444.362L690.931,443.442L692.1,442.763L692.964,441.703L693.152,440.817L692.964,440.386L692.626,440.023L692.386,439.31L692.275,439.065L691.814,438.486L691.659,438.216L691.73,437.962L692.126,436.982L692.224,436.56L692.016,435.917L691.646,435.571L691.49,435.237L691.931,434.624L692.457,434.409L693.081,434.506L693.159,434.536L695.503,435.44L696.613,436.112L697.685,436.234L698.776,435.102L699.282,433.47L699.029,432.05L696.133,427.236L694.639,425.75L694.315,425.259L693.373,420.283L693.055,419.643L693.814,419.401L696.951,419.304L697.99,419.083L698.256,417.613L698.782,416.154L699.497,414.856L700.334,413.876L701.529,413.333L703.614,413.579L704.601,413.007L705.744,412.705L709.075,413.202L710.64,413.049L713.001,411.92L714.562,411.174L715.023,410.851L715.29,410.278L716.231,407.607L716.322,407.234L716.023,405.709L716.004,405.292L715.796,404.383L715.829,403.877L716.121,403.427L717.05,403.142L717.394,402.866L718.095,400.902L718.108,399.213L717.978,397.567L718.264,395.691L718.757,394.89L719.439,394.409L720.128,394.052L720.621,393.609L720.804,393.154L721.777,390.726L722.465,389.435L722.745,388.753L722.959,387.735L722.926,386.874L722.654,384.627L722.758,383.851L723.316,383.271L724.621,382.959L725.18,382.644L725.693,381.799L725.94,381.009L726.277,380.314L727.115,379.751L728.797,379.716L730.232,380.403L731.635,380.749L733.2,379.678L733.804,378.82L734.011,378.41L734.193,377.932L734.148,376.907L734.524,376.173L735.193,375.707L736.005,375.485L736.434,374.639L737.012,374.169L737.59,373.836L738.018,373.366L738.349,372.533L738.447,371.887L738.473,371.199L738.583,370.246L739.252,367.367L739.473,365.849L739.388,364.222L738.979,362.776L738.336,361.611L736.667,359.572L734.875,357.867L734.602,357.246L734.479,356.577L734.245,355.951L733.628,355.445L734.713,354.159L735.096,352.396ZM933.733,825.922L933.35,826.595L933.293,827.39L933.564,828.097L934.163,828.489L934.163,829.006L932.485,828.888L931.074,828.14L928.579,826.399L928.579,825.922L929.3,825.913L929.867,825.679L930.338,825.299L930.727,824.876L931.514,824.832L932.271,824.944L933.733,825.352ZM1112.657,781.659L1114.313,781.226L1114.912,781.17L1114.999,781.659L1114.605,781.961L1114.139,782.186L1114.605,783.768L1114.605,784.247L1113.679,784.291L1112.145,784.586L1111.568,784.821L1110.77,785.345L1110.202,785.853L1109.619,786.242L1108.801,786.399L1108.239,786.646L1107.145,787.722L1106.413,787.979L1105.631,787.653L1104.971,786.928L1104.634,786.204L1104.854,785.872L1105.467,785.546L1106.582,784.097L1107.032,783.768L1107.257,783.523L1107.671,782.431L1107.891,782.186L1108.413,782.284L1109.118,782.666L1109.42,782.714L1111.69,781.794ZM1071.505,790.605L1070.953,792.015L1070.043,792.942L1068.984,793.756L1068.038,794.858L1069.163,798.84L1070.145,800.585L1071.505,799.631L1070.917,800.829L1069.889,802.062L1069.235,803.263L1069.797,804.357L1069.352,805.757L1068.764,807.154L1068.094,808.395L1067.42,809.338L1067.097,809.994L1066.468,811.837L1066.116,812.218L1065.39,812.349L1064.766,812.667L1064.214,813.029L1060.578,814.659L1059.683,814.884L1057.94,814.884L1057.842,814.668L1056.927,813.641L1056.462,813.317L1054.969,813.076L1053.721,813.236L1052.601,813.226L1051.466,812.48L1050.899,811.99L1050.377,811.83L1049.866,811.999L1049.319,812.48L1048.833,812.611L1046.557,812.218L1043.883,812.755L1039.271,814.39L1026.273,813.791L1022.305,815.061L1021.339,815.645L1020.301,816.016L1014.584,815.314L1010.34,815.483L1009.133,815.811L1007.594,816.001L1007.017,816.294L1006.076,816.934L1002.517,818.347L1001.545,818.553L997.976,818.229L996.596,818.553L996.207,818.806L995.691,819.42L995.266,819.595L994.617,819.595L994.213,819.404L993.855,819.18L993.359,819.071L992.249,819.158L991.319,819.376L989.693,820.075L988.696,819.666L987.474,819.532L972.067,820.075L972.067,819.595L972.896,818.937L973.116,818.06L972.921,815.146L973.034,814.216L973.412,812.736L973.351,811.649L973.156,810.884L972.798,809.835L972.338,808.907L971.853,808.504L971.515,808.335L971.203,807.979L970.784,807.62L970.119,807.454L964.556,807.357L963.032,807.042L962.122,806.451L961.728,806.451L961.14,806.685L960.435,806.039L959.115,804.357L958.277,803.744L957.126,803.131L955.899,802.862L954.825,803.306L951.036,801.392L950.929,800.635L950.929,800.157L944.088,800.836L939.347,800.157L939.071,799.947L938.765,799.566L938.54,799.209L938.478,799.059L938.059,799.077L937.721,799.284L937.445,799.519L937.159,799.631L932.659,799.631L931.57,799.115L930.982,799.124L930.727,799.894L930.466,799.822L928.794,800.157L927.638,799.65L925.869,797.419L924.887,796.912L919.498,797.075L916.88,796.68L914.773,795.428L914.252,795.835L913.868,796.029L913.505,796.045L913.065,795.91L911.971,796.805L907.548,796.649L905.769,797.488L904.874,796.605L901.192,796.787L899.725,796.436L899.418,795.998L899.556,795.297L899.295,794.858L898.835,794.595L897.981,794.504L897.577,794.332L897.071,793.794L896.672,793.208L896.197,792.666L895.394,792.231L895.859,791.704L895.609,791.648L895.46,791.645L895.399,791.535L895.394,791.181L896.314,790.699L896.693,790.611L897.148,790.605L897.224,790.379L897.214,790.219L897.276,790.125L897.577,790.125L897.183,789.564L896.877,788.978L896.81,788.301L897.148,787.452L896.672,786.073L897.347,784.313L898.344,782.604L898.866,781.396L898.738,780.906L898.436,780.417L898.145,780.087L898.007,780.081L898.073,779.572L898.707,777.62L899.126,776.91L899.178,776.32L898.4,775.821L898.4,775.34L898.712,774.963L898.809,774.784L898.712,774.611L898.4,774.24L899.351,772.296L899.556,771.381L899.295,770.501L900.558,768.401L900.829,767.665L901.013,769.222L901.044,772.371L901.438,773.71L901.78,774.504L902.021,774.705L902.522,774.765L903.013,774.897L903.069,775.199L903.013,775.547L903.156,775.821L903.698,776.087L904.265,776.27L905.769,776.395L907.001,776.141L907.972,775.371L908.566,774.058L908.729,772.179L908.376,770.677L907.824,769.262L907.615,768.099L908.3,767.335L907.686,765.948L907.517,764.862L907.809,763.884L908.514,762.845L909.425,761.917L909.956,761.945L910.57,762.499L911.777,763.11L911.777,763.689L911.076,764.475L911.092,765.466L911.777,767.91L911.695,769.898L911.777,770.501L913.065,772.918L914.175,773.675L919.467,774.266L921.206,774.765L922.157,774.435L925.695,774.825L927.26,774.765L927.914,774.555L928.472,774.228L928.865,773.71L929.008,772.918L929.285,772.277L929.96,772.079L931.575,772.179L930.803,769.42L932.905,768.539L935.743,768.866L937.159,769.753L938.437,773.135L938.263,773.71L937.967,773.926L937.461,774.969L937.159,775.34L936.571,775.623L935.952,775.764L934.623,775.821L932.168,775.283L930.767,775.208L929.867,775.821L930.185,776.489L931.258,777.196L932.434,777.752L934.285,778.304L936.356,779.754L937.394,780.081L938.504,779.88L939.644,779.359L940.687,778.675L941.526,777.978L942.252,781.518L942.344,782.977L942.216,785.734L942.344,786.399L942.825,786.781L944.103,786.869L944.701,787.211L947.033,788.057L952.56,786.411L954.825,786.969L956.16,786.223L961.268,785.295L962.961,784.755L966.877,782.714L968.197,782.265L969.552,782.008L970.963,781.976L977.196,783.071L978.495,783.768L979.093,783.325L980.151,782.804L981.931,782.186L985.827,783.768L986.195,783.288L986.43,783.109L986.584,782.861L986.686,782.186L989.672,782.917L990.357,783.824L991.472,783.651L991.84,783.768L991.922,784.276L991.779,784.693L991.554,785.104L991.452,785.583L991.973,787.527L993.333,788.355L995.205,788.508L998.119,788.336L999.909,787.922L1000.881,787.979L1001.095,788.167L1001.397,788.524L1001.821,788.869L1002.404,789.032L1004.317,789.032L1007.783,788.455L1009.338,788.941L1010.258,789L1011.22,788.455L1011.649,789.032L1012.12,788.455L1013.265,789.561L1014.134,790.802L1015.218,791.814L1016.998,792.231L1018.777,791.977L1028.635,788.245L1029.96,787.979L1030.681,788.142L1032.01,788.866L1032.966,789.032L1036.648,789.032L1036.193,790.078L1035.477,790.962L1034.035,792.231L1034.5,792.71L1034.117,793.415L1034.055,794.025L1034.316,794.508L1034.93,794.858L1034.853,793.518L1035.17,792.907L1035.681,793.001L1036.183,793.756L1035.85,794.282L1035.85,794.542L1036.183,794.858L1035.825,795.428L1035.508,795.159L1035.283,795.077L1034.991,795.29L1034.5,795.91L1034.684,796.589L1034.163,797.453L1033.703,798.599L1034.035,800.157L1033.278,800.792L1033.365,801.474L1033.779,802.218L1034.035,803.044L1034.27,804.594L1034.914,804.776L1035.82,804.613L1036.863,805.12L1037.686,805.776L1038.463,805.995L1039.869,805.932L1040.667,805.438L1041.756,803.272L1042.477,802.781L1043.004,802.747L1043.367,802.65L1043.98,802.206L1044.763,800.848L1044.834,800.635L1045.581,800.441L1047.631,800.307L1049.978,799.822L1050.408,799.631L1052.371,798.355L1052.954,797.788L1053.414,797.488L1054.013,797.338L1054.437,797.416L1054.785,797.388L1055.132,796.912L1055.562,796.912L1056.441,797.66L1058.845,798.295L1058.129,799.059L1059.479,799.791L1061.074,799.631L1062.603,798.921L1063.753,798.007L1063.431,797.863L1063.431,797.776L1063.324,797.488L1065.052,795.848L1066.269,794.182L1067.634,792.973L1069.797,792.71L1069.327,791.704L1070.002,791.733L1070.227,791.704L1070.089,791.441L1069.93,790.877L1069.797,790.605ZM1127.475,774.765L1128.809,776.047L1129.07,776.873L1128.763,778.505L1127.153,778.097L1125.527,778.759L1124.315,780.213L1124.008,782.186L1124.146,781.961L1124.264,781.735L1124.479,781.603L1124.908,781.659L1124.581,782.277L1124.09,782.874L1123.466,783.391L1122.72,783.768L1123.149,782.503L1122.658,782.055L1121.768,781.942L1121.001,781.659L1120.429,780.953L1120.004,780.078L1120.081,779.328L1121.001,778.982L1121.001,778.505L1120.572,778.505L1120.572,777.978L1121.625,777.701L1121.687,776.895L1121.001,774.765L1121.048,773.669L1121.237,772.996L1121.308,772.428L1121.001,771.601L1120.495,771.183L1118.864,770.168L1118.424,769.495L1118.516,768.467L1118.977,767.42L1119.544,766.608L1119.928,766.278L1121.411,765.375L1121.932,763.399L1122.198,761.423L1123.844,759.518L1124.325,757.279L1124.366,754.925L1124.008,753.601L1124.008,753.072L1124.908,752.495L1125.327,752.495L1125.327,753.072L1125.757,753.072L1126.105,752.618L1127.045,751.435L1127.587,750.994L1128.042,750.899L1128.416,751.067L1128.763,751.435L1128.538,752.47L1127.669,753.939L1127.475,754.922L1127.475,756.774L1127.557,757.442L1127.889,758.223L1127.904,758.885L1127.536,759.458L1126.81,760.179L1126.084,761.108L1125.757,762.317L1125.491,763.003L1124.882,763.727L1124.274,764.674L1124.008,766.014L1123.993,767.187L1124.121,767.709L1125.757,768.967L1127.275,771.727L1127.69,772.179L1128.037,772.425L1127.761,772.965L1127.291,773.499L1127.045,773.71L1126.999,774.228L1126.964,774.266L1127.066,774.291ZM880.299,745.612L881.424,746.502L882.672,747.001L883.613,748.133L883.771,750.906L883.342,750.906L882.974,750.18L881.409,748.55L880.887,747.698L880.484,746.773L879.906,745.085L880.177,745.05L880.248,745.161L880.248,745.366ZM863.569,713.662L867.665,716.59L868.764,717.867L869.357,719.202L868.979,719.532L868.038,719.57L866.995,720.045L866.504,720.818L866.253,721.839L866.1,726.393L865.778,726.52L864.857,726.422L863.738,726.121L862.986,726.254L862.25,727.001L862.05,725.871L861.401,725.374L859.662,724.826L859.591,724.588L859.662,724.253L859.693,723.948L859.448,723.815L858.578,723.872L858.384,723.815L858.057,723.315L857.464,722.06L857.095,721.636L857.637,717.259L857.566,715.47L857.095,713.662L856.737,712.802L856.528,712.11L856.651,711.32L858.599,707.971L859.35,707.336L860.092,707.799L862.597,712.425ZM1034.715,707.799L1035.589,707.469L1036.183,706.821L1036.74,706.383L1038.949,707.32L1040.989,709.149L1042.226,709.349L1041.705,710.387L1041.153,710.269L1040.549,709.692L1039.869,709.349L1038.872,709.533L1038.121,709.895L1037.307,710.111L1035.681,709.768L1035.395,709.787L1035.201,709.72L1034.792,709.149L1034.516,708.612L1034.378,708.06ZM1192.055,703.968L1191.181,705.106L1191.841,708.612L1190.552,709.349L1190.261,709.812L1189.877,712.542L1189.397,713.376L1188.016,715.055L1187.73,716.025L1187.576,718.219L1187.259,719.164L1186.702,719.56L1186.318,720.07L1185.531,722.472L1185.193,723.233L1185.014,723.153L1183.905,723.144L1183.481,723.233L1183.332,723.549L1183.22,724.088L1182.974,724.601L1182.381,724.826L1180.868,728.596L1181.44,729.023L1181.941,729.305L1182.437,729.482L1183.051,729.609L1182.882,730.248L1182.637,730.792L1182.253,731.286L1181.762,731.779L1182.023,732.108L1182.621,733.37L1179.354,732.336L1178.055,732.292L1176.578,732.839L1173.75,734.622L1172.738,735.685L1170.227,739.834L1168.417,742.234L1166.147,744.346L1163.196,746.187L1160.609,744.394L1160.195,744.242L1160.046,743.724L1158.911,741.325L1159.734,740.2L1161.54,734.765L1161.913,732.839L1161.729,731.096L1161.084,730.178L1160.225,729.52L1158.696,727.773L1158.599,727.39L1158.993,726.786L1158.911,726.422L1158.323,725.956L1157.924,726.026L1157.572,726.032L1157.152,725.358L1158.185,724.949L1160.624,723.233L1162.122,722.707L1162.664,722.27L1162.378,721.636L1162.92,721.195L1163.048,720.768L1163.053,720.254L1163.196,719.56L1163.615,718.581L1164.055,717.867L1164.628,716.631L1164.919,716.317L1166.775,715.79L1167.062,715.499L1167.532,714.814L1169.629,712.634L1170.099,711.768L1170.687,711.177L1174.43,709.882L1181.44,706.091L1182.381,705.354L1184.432,704.346L1188.548,704.597L1190.429,702.176L1190.966,702.134L1191.513,702.621L1192.055,703.488ZM1012.503,700.287L1014.758,701.009L1016.921,702.583L1018.603,704.604L1019.37,706.688L1019.237,708.238L1018.654,709.796L1017.719,711L1016.558,711.476L1015.29,711.349L1012.365,710.492L1011.22,709.882L1011.956,709.501L1013.439,709.527L1014.221,709.349L1014.835,708.844L1015.433,707.644L1015.939,707.215L1015.515,705.169L1015.218,704.388L1014.651,703.968L1014.651,703.488L1015.003,702.516L1014.073,701.979L1011.649,701.305L1011.649,700.771L1011.935,700.628L1012.232,700.415ZM1139.092,703.488L1138.504,704.88L1139.266,705.716L1140.59,705.833L1141.71,705.09L1141.925,705.328L1142.017,705.566L1142.099,706.154L1141.726,706.939L1141.066,707.663L1140.289,708.044L1139.563,707.799L1139.246,708.168L1138.673,707.799L1137.906,707.911L1137.078,707.024L1136.617,705.709L1136.955,704.556L1136.127,704.07L1135.406,704.289L1134.823,704.902L1134.378,705.62L1133.948,705.62L1133.595,704.934L1132.813,704.356L1132.66,703.733L1132.706,702.163L1132.823,701.419L1133.048,700.771L1133.652,702.001L1134.582,701.674L1135.62,700.771L1136.515,700.287L1137.313,700.853L1138.141,703.059ZM1074.082,687.909L1076.04,688.014L1078.377,689.41L1080.198,691.136L1080.607,692.228L1080.228,692.62L1079.911,692.686L1079.604,692.397L1079.267,691.696L1078.326,692.55L1077.457,692.839L1075.626,692.763L1074.783,693.033L1074.138,693.718L1073.233,695.484L1073.172,696.506L1073.284,697.476L1072.794,697.966L1071.29,698.106L1070.237,697.66L1069.061,695.58L1068.038,694.95L1068.187,694.396L1068.279,694.179L1068.509,693.88L1067.936,692.963L1067.757,691.843L1068.069,691.193L1068.938,691.696L1069.848,691.142L1070.917,691.808L1071.965,692.811L1072.794,693.298L1073.371,693.008L1073.985,691.932L1074.322,691.696L1075.033,691.798L1075.575,691.964L1076.076,691.996L1076.7,691.696L1075.851,691.231L1075.514,690.499L1075.764,689.83L1075.795,689.607L1075.12,689.371L1074.573,688.964L1074.082,688.486ZM1168.816,691.696L1168.862,692.613L1168.984,693.282L1169.245,693.88L1168.667,694.253L1168.386,694.367L1168.698,694.536L1168.954,694.759L1169.128,695.064L1169.245,695.484L1167.849,696.311L1167.128,696.515L1166.203,696.506L1166.203,696.019L1166.571,695.841L1167.103,695.287L1167.527,694.95L1164.797,693.995L1163.953,693.46L1164.919,692.763L1161.913,692.763L1162.342,692.034L1163.033,691.219L1163.605,690.384L1163.661,689.556L1163.953,689.531L1164.127,689.41L1164.521,688.976L1164.521,689.556L1165.564,688.212L1167.062,687.374L1168.258,687.218L1168.386,687.909L1166.637,688.441L1165.824,689.015L1165.385,690.091L1165.962,689.862L1166.223,689.859L1166.668,690.677L1168.816,688.976L1168.954,689.266L1169,689.34L1169.061,689.381L1169.245,689.556L1168.908,689.83L1168.693,690.136L1168.54,690.442L1168.386,690.677L1168.816,690.352L1169.025,690.448L1169.005,690.907ZM980.213,685.768L985.224,688.97L986.216,690.677L986.216,691.161L984.6,691.053L983.649,690.696L981.931,688.976L980.918,688.307L979.916,687.887L979.057,687.202L978.495,685.768L979.804,685.71ZM997.685,681.486L1000.17,681.543L1000.001,681.76L999.96,682.111L1000.022,682.557L996.637,686.15L994.346,688.008L992.73,687.909L995.072,683.093L995.813,682.841L997.066,681.734ZM785.182,678.812L786.18,679.32L786.277,680.191L786.052,681.447L786.041,683.093L785.653,682.608L785.428,682.411L785.295,682.155L785.182,681.486L784.323,682.073L784.676,679.82L784.891,678.975ZM955.47,679.348L957.878,678.027L959.177,677.711L959.974,678.812L959.795,679.664L959.974,683.922L959.443,684.502L958.236,685.108L956.114,685.768L948.572,685.94L946.209,686.886L945.954,685.758L946.48,684.049L946.209,683.093L946.48,682.876L946.762,682.411L947.069,682.073L946.486,681.62L946.209,681.486L946.818,680.867L947.324,679.463L947.922,678.812L948.224,679.243L948.628,679.674L949.104,680.069L949.64,680.414L950.505,680.229L951.251,682.474L952.463,683.093L954.611,683.093L955.286,682.71L955.101,681.856L954.513,680.95L953.971,680.414L953.112,680.889L952.499,680.392L951.972,679.508L951.353,678.812L951.353,678.276L952.069,677.472L952.887,677.944L953.966,678.857ZM966.018,676.083L966.898,676.543L967.496,677.191L967.619,678.027L967.092,679.08L966.177,679.339L965.231,678.531L963.876,676.668L964.735,675.595L965.793,675.624L966.115,675.754ZM1005.646,681.486L1005.789,681.326L1005.861,681.275L1005.938,681.199L1006.076,680.95L1005.534,681.02L1004.317,680.95L1004.649,680.229L1004.981,679.147L1005.145,678.171L1005.002,677.74L1007.783,675.595L1008.571,676.62L1009.619,678.519L1010.361,679.348L1011.485,679.942L1012.61,680.293L1013.592,680.851L1014.221,682.073L1013.439,682.219L1013.009,682.755L1012.968,683.495L1013.326,684.209L1013.326,684.697L1011.946,686.67L1009.727,685.529ZM780.887,679.878L780.959,677.098L781.204,675.901L781.746,675.065L782.063,675.25L782.309,675.47L782.585,675.624L782.994,675.595L782.994,676.083L782.718,676.24L782.431,676.495L782.176,676.668L782.191,677.481L781.808,678.209L781.296,678.972ZM963.876,672.382L963.876,672.919L963.39,673.468L961.652,676.62L960.624,676.744L959.581,676.419L959.115,675.837L958.936,674.915L958.594,674.378L958.41,673.839L958.722,672.919L959.228,672.366L960.046,671.868L960.961,671.619L961.728,671.845L962.112,672.171L962.48,672.337L962.889,672.261L963.411,671.845L963.523,672.075L963.508,672.213L963.554,672.306ZM1015.08,672.65L1015.535,671.743L1016.578,670.695L1018.087,669.654L1018.552,669.654L1018.087,670.238L1018.429,670.28L1018.562,670.491L1018.516,672.443L1017.264,673.251L1015.791,673.423ZM1131.811,666.729L1132.476,667.991L1135.585,668.771L1136.515,670.238L1134.48,671.379L1127.618,673.328L1126.145,674.235L1122.321,678.276L1121.012,678.474L1119.386,678.244L1117.934,677.759L1117.146,677.156L1113.659,678.841L1112.636,679.846L1113.28,681.486L1112.38,681.769L1112.002,682.608L1112.058,683.692L1112.457,684.697L1111.353,684.477L1110.218,683.609L1109.343,682.557L1108.99,681.779L1109.149,679.032L1109.527,677.9L1110.243,678.276L1110.54,677.848L1111.261,677.089L1111.568,676.668L1111.9,676.926L1113.28,677.74L1114.129,676.888L1114.63,676.157L1115.464,674.528L1117.627,672.638L1118.005,672.114L1124.479,668.043L1130.85,667.032ZM1026.738,668.628L1027.112,667.841L1027.756,667.448L1028.548,667.096L1029.315,666.438L1029.929,666.764L1031.499,668.043L1030.844,668.963L1029.627,669.008L1028.18,668.714ZM1051.696,664.292L1052.525,665.376L1053.552,666.329L1054.734,667.071L1055.991,667.506L1056.022,667.876L1055.92,667.972L1055.756,667.972L1055.562,668.043L1054.478,667.589L1053.338,667.825L1052.33,668.177L1051.696,668.043L1050.76,668.992L1048.096,670.945L1047.197,671.312L1046.389,671.98L1044.64,674.931L1043.766,675.595L1038.678,677.338L1035.968,677.558L1034.93,675.595L1035.825,676.083L1036.295,675.276L1037.134,674.643L1038.064,674.477L1038.795,675.065L1039.225,675.065L1039.649,674.666L1040.207,674.516L1041.618,674.528L1041.863,674.244L1042.728,672.382L1042.001,672.759L1041.618,672.328L1041.511,671.66L1041.618,671.312L1042.319,671.194L1049.559,667.506L1049.559,667.02L1049.196,666.828L1048.981,666.662L1048.731,666.521L1048.229,666.438L1048.229,665.9L1049.968,665.389L1050.714,664.935L1051.226,664.292ZM993.589,663.214L992.684,663.015L991.452,661.908L990.414,660.356L990.122,658.868L990.726,657.763L991.84,656.783L993.068,656.168L994.019,656.184L992.868,660.308L992.26,661.604L992.658,661.95L993.016,662.331ZM969.92,656.722L970.661,657.907L972.891,660.606L973.709,662.9L973.78,663.482L973.586,663.783L972.696,664.257L972.492,664.557L970.313,667.02L969.383,665.523L968.319,663.303L967.711,661.182L968.171,659.991L968.171,659.453L967.501,658.9L966.76,657.574L966.018,657.305L966.054,656.917L966.131,656.684L966.484,656.184L966.233,656.114L966.09,656.114L966.039,656.011L966.018,655.646L966.877,655.646L968.37,656.901L968.974,657.19L969.49,656.722ZM1108.607,663.751L1109.149,662.727L1109.445,662.391L1109.849,662.094L1109.466,660.929L1109.752,659.962L1110.305,659.13L1110.708,658.378L1110.847,658.214L1111.092,657.82L1111.261,657.292L1111.138,656.722L1110.616,656.283L1110.08,656.37L1109.66,656.626L1109.42,656.722L1108.955,656.21L1108.658,655.793L1108.096,654.569L1107.625,654.063L1107.18,653.9L1106.971,653.538L1107.237,652.419L1107.978,653.403L1113.28,655.646L1113.28,656.184L1112.457,656.184L1113.04,657.225L1113.863,657.686L1114.528,658.214L1114.605,659.453L1115.126,658.8L1115.663,658.49L1116.2,658.515L1116.752,658.868L1116.942,659.783L1116.476,661.182L1116.752,662.094L1116.44,662.622L1116.354,662.855L1116.287,663.214L1116.752,663.214L1116.752,662.679L1117.146,662.679L1116.696,663.809L1115.643,663.812L1113.746,663.214L1113.424,663.681L1113.291,664.388L1113.117,665.031L1112.657,665.312L1112.043,665.165L1111.568,664.915L1111.138,664.864L1110.708,665.312L1110.248,664.596L1109.752,663.988L1109.205,663.649ZM1039.225,651.346L1039.102,651.679L1039.077,651.749L1039.026,651.769L1038.795,651.935L1037.538,649.726L1038.596,649.784L1039.378,649.496L1040.938,648.652L1040.774,649.236L1040.544,649.726L1041.096,650.538L1041.403,650.804L1041.071,651.429L1040.59,651.826L1039.961,651.858ZM1006.076,655.646L1005.385,655.857L1005.022,656.344L1004.746,657.023L1004.317,657.798L1003.877,658.339L1003.084,659.085L1001.341,660.356L1000.339,660.644L998.099,660.529L997.501,660.27L996.156,659.127L995.501,658.868L994.99,658.474L994.97,657.574L995.593,654.55L996.371,653.621L998.314,652.419L997.874,652.128L997.444,652.015L997.025,652.102L997.925,650.784L999.715,649.294L1001.678,648.145L1003.499,647.53L1002.568,648.909L1003.069,649.447L1004.787,649.726L1005.646,648.652L1005.477,648.341L1005.217,647.53L1006.076,647.459L1006.924,647.53L1006.802,648.129L1006.597,648.736L1006.352,649.294L1006.076,649.726L1005.017,652.416L1005.012,653.538L1006.076,654.034L1006.076,654.569L1005.217,654.569L1005.217,655.159L1006.076,655.159ZM1021.554,644.029L1022.029,643.679L1023.062,644.222L1024.596,645.425L1025.332,646.837L1025.721,648.264L1025.884,651.64L1025.741,653.121L1025.128,656.357L1024.99,658.089L1023.21,661.931L1022.888,662.215L1022.448,662.311L1021.554,662.679L1019.37,664.826L1018.654,665.117L1017.468,665.424L1016.762,665.9L1016.619,665.405L1016.374,665.299L1015.939,664.826L1015.663,664.263L1015.29,662.683L1015.08,662.094L1014.676,661.601L1012.933,660.529L1013.209,660.103L1013.255,659.636L1013.081,659.143L1012.718,658.624L1012.416,658.013L1012.355,657.375L1012.437,656.879L1012.503,656.722L1011.552,654.8L1010.831,653.871L1009.972,653.448L1009.972,652.958L1010.33,652.608L1010.637,652.474L1010.908,652.583L1011.22,652.958L1011.859,652.477L1014.221,649.726L1018.317,646.744L1018.67,646.262L1019.605,644.591L1020.055,644.385L1021.303,644.27ZM953.542,645.425L953.072,644.886L955.086,643.567L956.175,643.249L956.973,643.759L957.402,643.759L957.694,643.345L958.016,643.259L958.369,643.422L958.722,643.759L959.095,644.867L959.259,646.282L959.248,647.805L959.115,649.242L958.722,648.113L958.261,648.113L958.267,649.088L958.042,649.813L957.592,650.361L956.973,650.804L956.825,650.582L956.789,650.48L956.727,650.4L956.543,650.217L956.513,649.861L956.63,649.787L956.794,649.813L956.973,649.726L956.436,649.399L955.884,649.274L955.352,649.38L954.825,649.726L954.697,648.976L954.534,648.684L954.304,648.787L953.971,649.242L953.44,648.899L952.959,648.922L952.56,649.226L952.212,649.726L951.998,648.806L952.172,648.607L952.714,648.113L952.274,647.687L952.243,647.302L952.54,646.917L953.072,646.503L952.857,645.919L952.979,645.666ZM870.901,636.755L871.269,637.057L872.323,637.671L872.788,638.098L873.039,638.654L873.182,639.486L873.033,640.244L872.384,640.578L871.065,640.282L870.308,639.563L869.689,638.67L868.764,637.834L869.204,637.343L869.715,636.996L870.277,636.803ZM899.725,630.234L898.717,631.228L897.245,631.901L895.711,632.155L894.571,631.901L894.801,633.476L894.049,634.257L892.745,634.518L891.334,634.547L887.744,635.585L886.348,635.627L886.348,635.087L891.963,631.309L893.471,630.82L896.294,630.788L897.577,630.234ZM948.781,626.991L949.216,624.892L950.525,623.436L952.028,622.27L953.072,621.049L953.542,621.049L953.542,622.18L953.383,622.798L952.954,623.919L952.714,624.293L955.158,625.761L955.991,626.952L955.684,628.661L954.779,628.371L954.115,629.243L953.695,630.64L953.542,631.901L952.662,632.772L951.537,633.946L950.106,634.74L948.781,635.087L949.334,632.286L949.891,631.006L950.929,630.234L950.929,629.742L950.648,629.572L950.377,629.298L950.07,629.153L950.07,628.661L950.597,627.815L950.469,627.004L949.825,626.605ZM1013.326,626.498L1012.534,626.373L1007.783,626.991L1007.927,626.373L1007.901,626.141L1007.835,625.999L1007.783,625.668L1007.927,625.072L1008.223,624.895L1008.53,624.895L1008.683,624.834L1009.006,622.959L1008.755,622.315L1007.783,622.18L1008.141,620.952L1008.878,620.408L1009.716,620.053L1010.361,619.377L1012.201,622.599L1012.503,622.422L1012.723,620.817L1013.337,620.498L1015.31,621.049L1015.566,621.223L1015.908,621.613L1016.369,621.996L1017.58,622.393L1017.749,622.921L1017.596,623.604L1017.228,624.293L1016.302,624.699L1015.111,624.682L1014.114,625.021L1013.792,626.498ZM984.937,625.127L985.106,625.323L985.5,625.587L985.929,625.967L986.216,626.498L986.369,627.319L986.236,627.795L985.766,628.169L981.977,630.177L981.072,630.82L981.041,630.051L981.092,629.488L981.246,629.047L981.501,628.661L981.501,628.072L981.082,628.117L979.783,628.072L979.952,627.358L980.213,626.772L980.581,626.295L981.072,625.909L980.816,625.806L980.213,625.42L981.379,625.143L982.094,624.083L982.381,622.731L982.36,621.59L981.977,619.867L981.921,619.193L982.524,619.164L984.078,619.377L984.651,620.041L985.234,621.162L985.674,622.344L985.827,623.211L985.663,623.771L985.06,624.505ZM892.822,615.592L893.103,615.547L893.19,615.663L893.19,615.875L893.251,616.134L893.747,616.92L894.3,617.436L894.975,617.72L895.859,617.8L895.859,618.294L894.647,619.003L893.067,619.261L891.477,619.029L890.245,618.294L890.245,617.8L892.024,617.346L892.704,616.785ZM994.233,613.476L993.558,613.137L991.452,610.717L989.038,609.574L988.363,609.09L987.929,608.447L987.515,607.492L987.33,606.523L987.545,605.838L988.363,605.599L991.84,605.838L992.127,605.96L992.73,606.335L992.73,606.923L992.26,606.923L992.26,607.466L992.899,607.511L993.364,607.737L993.727,608.099L994.019,608.551L995.016,607.831L996.207,607.995L997.281,608.706L997.884,609.632L998.851,608.46L1000.599,608.819L1002.507,609.729L1003.928,610.175L1003.499,610.717L1004.035,610.914L1004.378,611.404L1004.618,612.088L1004.787,612.885L1003.243,615.037L1002.778,617.056L1002.067,617.414L999.173,616.959L997.424,615.843L996.381,615.592L995.757,615.256L994.985,613.805ZM949.211,605.25L950.955,607.672L950.53,610.139L948.92,612.482L947.069,614.508L945.33,616.991L944.103,617.984L942.968,617.51L942.952,616.408L943.254,612.43L943.167,611.753L943.136,610.281L943.842,608.499L944.87,607.269L945.811,607.466L946.266,606.939L946.639,606.335L945.995,606.377L945.811,606.335L945.811,605.838L946.424,605.431L947.007,605.25L947.529,605.36L947.922,605.838L948.352,605.838L948.388,605.347L948.572,605.263L948.858,605.321ZM1074.082,605.25L1072.978,607.375L1071.377,609.377L1065.819,614.366L1064.766,614.86L1059.366,615.598L1058.129,616.134L1057.479,616.63L1056.247,617.836L1055.562,618.294L1054.964,618.497L1054.519,618.477L1054.013,618.361L1053.2,618.294L1050.745,618.977L1049.84,618.751L1049.559,617.21L1050.055,616.166L1052.105,614.076L1052.566,613.179L1052.985,612.03L1053.967,610.746L1055.117,609.661L1055.991,609.09L1057.546,608.996L1061.156,609.493L1062.465,609.09L1063.733,609.535L1065.604,608.954L1067.302,607.969L1068.969,606.109L1071.035,605.495ZM897.148,598.248L898.216,598.736L897.818,599.581L897.071,600.58L897.148,601.501L896.263,602.148L896.105,603.007L896.14,603.925L895.859,604.759L895.338,605.088L893.911,605.47L893.251,605.838L892.776,605.353L892.449,605.098L891.569,604.759L891.569,604.216L892.3,603.76L892.254,603.007L891.692,602.306L890.889,601.996L890.127,601.491L889.667,600.366L889.503,599.251L889.575,598.74ZM1117.146,601.996L1117.852,601.475L1118.261,601.85L1118.343,602.704L1118.005,603.625L1116.481,603.137L1114.211,603.634L1108.505,605.902L1107.922,606.271L1107.237,606.923L1106.858,607.482L1106.735,607.889L1106.541,608.218L1105.948,608.551L1105.416,608.654L1101.428,608.551L1100.804,608.35L1100.548,607.86L1100.405,607.23L1100.155,606.629L1099.137,604.978L1098.513,604.423L1097.025,604.035L1096.345,603.256L1095.829,603.082L1095.272,603.169L1094.28,603.537L1092.623,603.77L1091.595,604.203L1090.813,604.901L1090.465,605.838L1090,605.838L1090,605.25L1089.606,605.25L1088.926,605.97L1088.369,605.185L1087.99,603.828L1087.852,602.833L1087.786,600.919L1088.021,600.007L1088.711,599.283L1089.785,598.947L1090.905,598.785L1091.784,598.407L1092.142,597.388L1092.674,596.786L1099.822,595.09L1101.995,595.058L1104.235,595.485L1105.094,596L1106.735,597.375L1108.924,597.976L1111.353,599.639L1112.028,600.366L1112.268,599.49L1111.91,598.795L1111.291,598.077L1110.708,597.109L1111.746,597.452L1112.503,597.446L1113.127,597.122L1113.746,596.521L1113.782,597.485L1115.479,598.028L1118.424,598.248L1116.63,599.07L1116.287,599.283L1116.185,599.936L1116.43,600.502L1116.814,601.142ZM730.972,596.815L732.015,598.973L736.34,601.786L736.939,604.216L736.105,603.182L734.3,602.264L732.199,601.643L730.501,601.501L729.576,601.918L728.993,602.639L728.579,603.318L728.149,603.625L727.336,604.035L727.351,604.959L727.704,605.883L727.934,606.335L727.827,607.382L727.546,607.866L726.86,608.008L725.551,608.008L725.096,607.647L723.169,605.25L720.065,602.691L718.592,601.113L718.454,599.826L717.089,598.601L714.701,595.33L713.259,594.398L713.699,593.475L713.423,592.132L713.776,591.63L713.259,591.089L715.806,587.416L717.421,585.899L718.884,586.246L718.93,586.498L718.935,586.693L719.221,587.04L719.175,587.208L720.464,589.696L720.955,591.257L721.614,591.847L723.169,592.766L725.158,592.271L727.75,593.317L730.005,595.103ZM987.975,598.74L988.143,599.862L987.586,601.301L986.686,602.678L985.827,603.625L985.96,603.954L986.216,605.25L985.827,605.25L985.336,604.468L983.904,603.356L983.219,602.587L982.054,599.251L981.716,598.74L980.75,598.636L980.029,598.293L979.384,597.692L978.709,596.815L977.697,594.838L976.971,594.314L975.928,594.942L975.565,592.727L974.404,591.261L973.034,590.134L972.067,588.912L971.638,588.912L971.193,589.696L970.661,589.92L970.411,589.502L970.779,588.368L970.232,587.733L969.362,586.294L968.631,585.652L969.373,585.426L969.429,585.049L969.183,584.505L969.025,583.772L969.245,583.017L969.766,582.468L973.228,580.561L974.614,580.269L975.534,580.759L975.447,581.615L975.595,582.112L975.964,582.335L976.593,582.391L977.237,582.65L977.82,583.231L978.106,583.811L977.861,584.07L977.84,584.453L978.29,586.226L978.495,586.741L978.97,587.072L980.642,587.778L985.597,587.778L986.216,588.511L985.929,590.137L984.937,592.766L987.545,594.942L987.136,595.301L986.962,595.408L986.686,595.485L986.737,596.501L986.333,597.181L985.878,597.705L985.827,598.248L986.257,598.698L987.269,598.28ZM888.491,588.368L888.097,587.778L888.097,587.286L888.527,586.508L889.401,585.627L890.444,585.101L892.27,585.704L893.098,584.933L893.747,583.772L894.105,582.929L893.343,582.978L892.791,583.386L892.316,583.85L891.763,584.07L891.221,583.941L890.045,583.464L889.35,583.474L891.569,582.391L890.741,581.95L889.815,581.249L890.526,581.178L891.201,581.223L891.835,581.431L892.392,581.846L892.53,581.255L892.668,581.132L892.668,581.09L892.392,580.759L892.878,580.379L893.389,580.191L893.952,580.139L895.394,580.36L896.166,580.72L896.565,581.242L896.253,581.846L896.304,582.274L896.442,582.822L896.815,583.289L897.209,583.565L897.112,583.668L897.148,584.07L898.866,584.07L896.718,585.108L896.979,585.957L895.614,587.143L895.394,588.368L895,588.368L894.33,587.772L893.747,588.248L893.083,589.074L892.178,589.512L891.257,589.418L889.309,588.815ZM720.428,575.31L719.477,574.998L718.669,574.254L717.166,572.484L715.366,571.418L712.952,570.726L710.825,571.074L709.833,573.082L708.667,572.146L706.366,571.447L705.507,570.356L705.313,569.644L705.19,568.161L705.078,567.576L704.05,565.752L703.789,564.896L704.572,565.108L705.62,566.165L706.366,566.536L706.366,565.944L705.364,564.981L704.74,563.771L703.053,559.422L702.317,558.224L701.672,558.015L701.223,559.386L701.243,560.676L701.734,563.322L701.652,564.896L701.059,566.295L700.246,566.867L699.372,567.274L698.605,568.171L698.216,568.171L697.838,566.796L696.038,565.749L695.639,564.304L695.889,563.644L696.38,562.843L696.764,562.033L696.672,561.32L696.426,560.646L696.564,560.06L696.917,559.618L697.316,559.386L698.19,558.4L698.973,556.309L699.356,553.699L699.464,551.185L699.811,552.326L699.893,552.828L700.323,552.828L701.182,551.244L701.672,551.818L702.143,553.298L702.93,554.471L703.442,553.796L703.677,554.262L703.897,555.106L704.434,555.559L705.063,555.299L706.162,554.138L707.624,553.317L708.187,551.987L708.238,550.373L707.696,548.945L708.974,549.496L708.217,546.811L708.125,546.214L708.248,545.156L708.453,544.294L708.494,543.56L708.125,542.874L708.125,542.375L710.263,542.375L713.658,552.173L713.776,552.828L713.678,554.041L713.3,554.699L712.707,555.246L711.981,556.107L712.487,556.836L713.955,559.683L714.732,560.047L715.616,559.318L716.475,558.296L717.166,557.748L717.028,558.022L716.859,558.582L716.736,558.895L717.912,559.149L718.291,559.972L718.444,561.07L718.884,562.163L721.543,564.578L722.228,566.685L724.457,569.81L724.917,571.048L725.091,572.344L724.897,573.67L724.268,575.014L723.931,575.102L722.32,574.712L721.737,574.8L721.047,575.212ZM719.313,548.945L720.08,549.17L720.755,549.568L721.931,550.588L721.63,550.546L720.678,550.588L721.062,552.763L721.461,553.539L722.32,553.875L722.32,554.471L720.587,554.712L719.538,555.067L718.684,554.855L717.554,553.376L718.025,552.828L717.089,551.801L716.266,550.588L715.028,547.852L714.911,547.242L714.742,545.417L714.558,544.569L714.082,544.105L713.377,543.622L712.947,542.923L713.259,541.777L714.267,542.453L714.814,541.996L715.458,540.134L716.552,540.48L716.69,541.486L716.317,542.639L715.877,543.423L716.951,543.344L717.641,543.655L718.199,544.128L718.884,544.569L718.5,546.22L718.014,547.61L716.736,550.096L717.212,550.396L717.841,550.605L718.562,550.67L719.313,550.588L719.313,550.096L718.454,549.496L719.733,549.496ZM733.467,531.909L732.096,533.93L731.473,535.228L731.36,536.346L730.501,536.346L730.501,535.748L732.904,532.007ZM1061.606,536.847L1060.808,537.84L1060.701,539.441L1060.399,540.853L1058.988,541.284L1059.479,542.012L1059.744,542.218L1060.276,542.375L1059.898,542.874L1061.007,542.91L1061.038,543.423L1060.276,544.569L1060.087,545.783L1060.082,546.791L1060.747,552.828L1061.606,556.107L1059.939,556.348L1058.461,557.579L1057.75,559.383L1058.369,561.32L1058.369,562.511L1056.866,563.312L1053.844,564.304L1053.343,565.144L1052.954,566.945L1052.566,567.576L1051.942,567.778L1050.643,567.212L1049.748,567.036L1049.104,566.568L1047.708,564.721L1047.447,564.6L1047.186,564.678L1046.583,564.07L1045.98,563.117L1045.698,562.163L1045.407,562.316L1044.691,562.521L1044.405,562.668L1044.435,562.124L1044.374,561.017L1044.405,560.48L1043.367,561.141L1042.912,560.666L1043.004,559.543L1043.551,558.296L1044.159,557.768L1044.977,557.462L1046.128,557.201L1046.465,556.944L1047.197,556.107L1048.736,556.221L1049.088,556.107L1049.497,555.168L1049.533,554.184L1049.794,553.337L1050.837,552.828L1050.51,551.928L1050.638,549.965L1050.408,548.945L1050.295,549.267L1050.285,549.346L1050.213,549.359L1049.947,549.496L1049.661,548.889L1049.283,548.426L1048.802,548.087L1048.229,547.852L1048.582,547.14L1048.536,546.044L1048.219,544.892L1047.8,544.02L1047.048,543.237L1046.343,542.975L1045.514,542.825L1044.405,542.375L1043.489,541.604L1041.48,539.053L1040.938,537.99L1040.82,536.742L1041.158,535.853L1041.603,534.99L1041.833,533.825L1051.037,531.909L1052.325,532.085L1055.347,533.05L1055.49,533.6L1058.129,536.847L1058.292,536.493L1058.384,536.131L1058.579,535.853L1058.988,535.748L1059.029,535.395L1058.952,535.277L1058.799,535.258L1058.599,535.199L1059.54,534.885L1060.348,535.11L1061.038,535.787ZM1025.496,531.307L1025.895,531.931L1027.597,533.551L1027.628,533.93L1027.536,534.035L1027.357,534.035L1027.132,534.1L1026.641,536.954L1026.508,537.445L1025.639,537.284L1024.99,537.023L1024.407,536.971L1023.732,537.445L1023.517,536.699L1023.635,536.167L1023.798,535.715L1023.732,535.199L1023.481,534.836L1022.755,534.1L1022.448,533.551L1021.681,532.913L1021.369,532.458L1021.554,531.909L1021.983,531.696L1022.377,531.876L1022.673,532.21L1022.842,532.458L1023.215,531.895L1023.686,531.5L1024.177,531.444L1024.596,531.909L1024.99,531.909L1024.99,531.307ZM711.122,530.809L710.539,531.608L709.864,532.756L708.974,534.699L708.555,534.699L708.575,532.674L709.67,524.91L710.856,522.243L711.122,520.614L712.196,517.62L712.799,517.289L713.31,516.502L714.128,514.812L714.88,513.874L716.051,512.84L717.457,512.108L717.605,512.397L717.703,512.81L718.454,513.165L719.436,514.317L719.697,515.554L719.758,516.699L720.162,517.62L719.82,518.568L719.855,519.339L720.05,520.004L720.162,520.614L720.188,521.319L720.131,521.738L719.896,522.217L718.413,524.366L718.127,525.021L718.239,525.588L718.7,525.781L718.996,525.165L719.293,524.274L719.733,523.619L719.82,524.811L719.62,529.16L719.324,530.076L718.914,530.184L718.454,529.16L718.025,529.16L718.158,529.536L718.454,530.809L718.209,530.613L717.554,530.259L717.513,530.862L717.396,531.182L717.258,531.444L717.166,531.909L716.107,531.372L715.11,531.558L714.604,532.203L715.028,533.05L715.028,533.551L714.359,533.482L713.975,533.188L713.873,532.661L714.128,531.909L712.891,531.686L712.18,530.096ZM968.171,515.36L968.299,515.6L968.452,515.79L968.575,516.108L968.631,516.738L968.57,517.417L968.386,517.496L968.115,517.424L967.777,517.62L967.389,518.158L966.974,518.627L966.519,518.709L966.018,518.116L965.589,518.116L964.95,518.627L964.229,518.316L963.646,517.555L963.411,516.738L963.032,516.827L962.224,517.171L961.478,517.909L961.268,519.168L959.115,516.463L961.728,515.36L961.089,513.037L960.66,512.462L959.974,513.165L959.616,513.165L959.402,512.259L958.86,511.99L958.139,512.151L957.402,512.561L957.408,511.707L955.986,511.084L955.684,509.855L955.454,510.003L955.255,510.407L954.779,509.671L954.227,509.304L953.654,509.35L953.072,509.855L952.985,509.038L953.235,508.312L953.675,507.799L954.186,507.599L954.703,507.195L954.718,506.288L954.396,504.842L954.421,503.652L954.636,502.613L955.27,501.869L956.543,501.534L960.895,504.513L961.728,505.446L961.851,506.229L961.636,508.2L961.728,509.254L962.02,510.052L962.367,510.427L963.411,510.959L966.039,512.784L967.337,513.998ZM962.587,567.576L962.04,571.564L962.102,573.569L963.017,575.31L962.495,576.433L961.825,579.932L961.268,581.249L960.353,582.027L959.074,582.744L957.663,583.273L956.329,583.474L955.628,583.279L955.378,582.806L955.255,581.846L953.798,579.445L953.542,579.367L952.662,578.598L950.99,579.338L949.942,580.564L950.929,581.249L950.929,581.846L949.973,582.65L949.022,582.527L948.106,581.846L946.941,580.548L946.639,580.049L946.209,579.069L945.8,578.439L945.381,577.955L945.391,577.488L946.209,576.894L945.442,575.111L944.87,574.563L944.026,574.712L943.653,573.406L942.584,572.676L941.291,572.559L940.207,573.082L939.347,572.559L939.02,572.636L938.478,573.082L938.488,572.718L938.529,572.562L938.652,572.52L938.908,572.484L938.908,570.356L938.407,569.907L937.353,570.121L937.159,569.514L937.425,568.942L938.601,567.765L938.908,567.036L938.78,566.028L937.854,564.948L937.307,562.882L936.515,562.196L935.528,561.955L934.623,562.163L935.011,563.263L933.595,562.921L933.902,561.454L935.001,559.793L935.911,558.895L935.308,557.814L934.807,557.846L934.326,558.41L933.733,558.895L933.626,559.113L933.651,559.484L933.564,559.832L933.089,559.982L932.537,559.816L932.506,559.461L932.721,559.084L932.874,558.895L932.874,558.296L932.005,558.296L933.304,555.559L932.015,554.816L930.655,554.285L929.111,553.972L927.26,553.875L928.783,553.395L929.418,553.014L929.867,552.232L929.377,551.508L929.254,550.794L929.315,550.265L929.397,550.096L928.748,548.746L928.318,548.184L928.108,548.674L924.458,548.397L920.157,548.945L918.9,548.778L916.747,548.025L915.847,547.852L914.635,547.976L912.718,548.426L911.777,548.397L907.441,547.304L906.51,547.408L904.511,547.969L903.621,547.852L902.951,547.062L901.438,543.423L901.223,543.739L900.998,543.991L900.676,544.105L900.154,544.02L900.783,542.819L901.964,541.503L902.777,540.209L902.297,539.088L902.297,538.487L902.762,538.487L902.762,537.99L901.417,535.63L900.528,534.551L899.51,534.1L896.764,533.675L895.43,533.158L894.571,532.458L894.356,531.843L894.294,530.43L894.105,529.755L892.638,528.574L892.392,528.309L892.193,528.044L891.748,527.926L891.303,527.582L891.104,526.665L890.853,526.076L890.27,525.552L888.373,524.359L886.809,523.619L885.034,521.676L884.431,521.42L884.047,521.066L883.439,519.516L883.127,519.168L881.685,518.391L875.544,513.736L873.397,512.561L871.852,512.062L871.044,511.993L870.001,512.062L868.079,512.466L867.174,512.39L866.34,511.757L865.118,510.141L864.632,509.905L863.784,509.855L862.756,509.629L861.8,509.212L860.91,508.959L860.092,509.254L860.092,509.855L860.976,509.882L861.82,510.217L862.326,510.929L862.25,512.062L861.687,512.515L860.664,512.843L853.772,513.49L852.34,514.313L852.294,513.414L852.386,512.485L852.616,511.753L853,511.458L853.496,511.205L854.968,510.105L855.577,509.855L857.019,509.507L859.867,507.95L861.759,507.461L863.569,506.495L865.072,505.946L865.302,505.706L865.578,504.602L865.716,504.296L866.442,504.046L867.731,504L868.283,503.691L868.723,503.024L868.948,502.257L868.953,501.541L868.764,500.981L869.684,500.666L870.84,499.531L871.505,499.274L875.381,499.274L876.7,498.81L879.982,496.865L881.624,496.566L882.263,496.908L883.188,497.994L883.557,498.224L884.38,498.326L885.31,498.646L886.18,499.165L886.809,499.876L886.354,501.416L886.998,502.626L888.251,503.408L889.575,503.691L889.575,504.503L890.618,508.213L891.104,509.254L891.15,510.131L891.876,511.642L893.021,513.076L895.798,514.277L898.513,516.643L900.154,517.014L900.154,517.62L899.986,518.23L900.154,518.548L900.538,518.525L901.008,518.116L901.785,518.925L903.575,519.276L904.444,519.768L905.099,519.335L905.769,519.768L906.98,518.962L908.238,519.214L909.23,520.224L909.629,521.692L910.181,522.659L911.444,523.547L913.914,524.713L916.716,525.611L919.753,525.863L921.114,526.177L922.382,526.665L923.563,526.61L924.672,525.313L926.022,525.971L927.474,525.981L928.916,525.801L930.256,525.863L934.239,527.277L935.441,528.014L934.797,528.23L934.142,528.721L933.595,529.418L933.304,530.259L933.273,531.598L933.61,532.363L939.24,537.108L940.207,538.487L938.642,539.735L937.486,542.362L937.246,545.127L938.478,546.808L938.478,547.304L937.292,547.695L937.486,548.4L938.908,550.096L939.041,551.048L939.056,552.31L939.163,553.402L940.636,555.263L940.769,556.054L941.081,556.478L941.388,556.713L941.526,556.928L941.485,558.348L941.536,559.074L941.863,559.601L941.229,560.646L941.066,561.027L941.526,562.082L942.334,563.016L944.026,564.304L946.209,565.443L946.414,565.918L946.603,566.64L946.874,567.29L947.304,567.576L949.451,567.16L950.331,567.196L952.095,568.525L954.606,568.792L955.684,569.215L956.886,568.61ZM890.245,488.172L889.554,487.968L888.879,487.875L888.235,487.931L887.668,488.172L887.882,486.754L888.634,486.21L889.442,486.042L889.815,485.735L890.091,484.865L890.771,483.931L891.62,483.133L892.392,482.687L893.42,483.311L894.484,484.271L895.056,485.547L894.571,487.12L893.558,486.339L892.684,487.229L891.763,489.332L891.288,489.2L890.766,488.505ZM904.91,490.44L904.25,490.047L902.276,488.08L901.867,487.394L901.627,486.309L899.725,483.192L900.614,482.687L900.671,483.106L900.845,483.199L901.105,483.152L901.438,483.192L902.915,484.815L904.649,486.266L906.602,487.427L908.729,488.172L908.494,489.359L909.696,489.576L911.383,489.533L912.636,489.932L912.636,490.44L910.601,492.667L909.404,493.507L907.87,493.754L907.257,493.543L906.346,492.805L904.68,492.495L904.178,492.094L904.204,491.56L904.91,490.987ZM683.157,480.426L684.114,481.496L685.228,482.41L686.282,483.594L687.023,485.458L685.74,485.415L684.937,485.201L684.308,484.686L683.035,483.053L682.385,481.931L682.211,480.885ZM921.676,482.083L920.74,484.584L919.119,486.906L917.151,488.347L915.203,488.172L916.062,487.025L916.931,486.306L917.688,485.415L918.71,482.39L921.881,477.336L922.965,476.546L922.883,476.847L922.842,477.141L922.765,477.418L922.535,477.706L923.916,477.973L923.588,479.657L922.52,481.456ZM1089.8,496.016L1089.8,496.747L1089.657,498.145L1088.865,499.034L1086.993,498.224L1085.976,498.784L1085.219,498.435L1084.6,497.691L1083.956,497.066L1084.416,496.566L1083.848,496.157L1083.756,495.743L1083.879,495.324L1083.956,494.91L1084.022,494.636L1084.38,493.754L1084.416,493.25L1083.695,492.637L1083.562,492.37L1083.112,491.165L1082.069,490.802L1079.911,490.987L1078.786,491.626L1079.789,493.009L1082.238,494.91L1084.554,498.297L1085.705,499.274L1085.705,499.876L1085.546,500.225L1085.49,500.212L1085.551,500.304L1085.705,500.981L1084.073,501.702L1082.069,502.218L1077.978,502.639L1076.905,502.468L1074.9,501.705L1072.65,501.386L1071.781,500.995L1070.227,499.876L1068.693,499.139L1064.97,498.326L1061.739,498.188L1061.084,497.981L1060.522,497.402L1058.589,494.603L1057.878,493.961L1056.85,493.754L1056.85,493.25L1057.219,493.102L1057.74,492.647L1058.19,492.502L1058.461,492.548L1058.691,492.637L1058.988,492.647L1061.391,492.094L1061.667,491.856L1062.68,490.186L1063.354,489.675L1064.045,489.553L1064.756,489.533L1065.502,489.332L1067.179,487.671L1069.061,486.25L1069.132,486.012L1069.767,485.659L1069.562,484.881L1068.923,484.096L1068.279,483.746L1066.259,483.251L1065.502,483.192L1064.167,483.337L1063.099,483.641L1062.219,484.211L1061.391,485.158L1060.455,487.401L1060.276,487.394L1057.449,491.451L1056.528,492.301L1055.347,492.647L1054.028,492.459L1048.71,490.479L1047.8,489.932L1046.89,489.217L1046.297,488.904L1045.484,488.779L1044.348,488.287L1042.175,486.072L1040.938,485.458L1040.938,484.855L1041.649,484.588L1041.899,483.855L1042.001,482.925L1042.226,482.083L1041.961,481.997L1041.797,481.865L1041.644,481.707L1041.403,481.535L1041.889,481.199L1042.124,480.855L1042.216,480.36L1042.226,479.568L1042.446,479.003L1042.953,478.677L1043.551,478.452L1043.98,478.211L1045.714,476.536L1046.128,475.942L1046.557,475.942L1047.329,477.597L1049.375,477.428L1051.717,476.804L1053.414,477.101L1053.67,476.649L1053.915,476.312L1054.13,475.948L1054.273,475.436L1054.626,476.18L1054.703,476.546L1055.132,476.546L1055.92,475.433L1057.234,474.842L1059.898,474.376L1061.555,473.774L1062.168,472.819L1062.066,471.371L1061.606,469.287L1072.88,468.95L1074.082,469.287L1073.617,471.103L1074.788,471.883L1076.475,472.343L1077.559,473.219L1077.176,473.992L1075.181,477.101L1075.34,477.554L1077.978,480.149L1080.126,481.027L1080.627,481.436L1080.903,481.766L1083.041,485.023L1083.869,485.755L1085.239,486.566L1084.416,487.12L1084.677,487.809L1085.117,488.423L1085.705,489.049L1085.74,489.86L1085.919,490.354L1086.313,490.542L1086.993,490.44L1086.906,492.074L1087.735,493.905L1088.895,495.4ZM989.263,454.228L991.472,455.737L991.032,457.756L987.975,462.119L987.545,462.119L986.84,458.239L987.024,456.363L988.363,455.342L988.149,454.692L988.292,454.384L988.696,454.281ZM680.12,464.84L680.422,465.714L680.979,468.176L681.731,469.357L681.746,469.926L680.979,470.442L680.422,469.962L678.862,469.496L677.405,468.414L676.372,467.974L675.273,467.71L674.291,467.62L673.734,467.303L672.128,465.863L671.499,465.446L670.425,465.301L669.551,465.314L668.794,465.102L668.523,464.721L668.988,464.811L669.418,464.493L669.781,463.731L667.598,463.016L666.78,462.625L666.749,462.824L666.718,463.129L666.728,463.241L665.89,461.99L665.215,460.33L664.765,458.644L664.335,455.196L663.584,453.538L662.387,452.175L660.777,450.941L659.319,450.224L658.537,449.65L656.85,445.881L656.676,445.32L655.576,445.34L654.84,445.234L654.313,444.755L653.874,443.649L654.042,441.758L653.71,441.156L652.544,441.924L652.57,440.638L652.355,439.71L651.818,439.205L650.867,439.182L651.491,438.513L653.117,436.218L653.444,435.479L654.037,435.346L659.866,435.107L661.712,434.721L663.338,434.012L665.026,432.943L665.89,433.23L666.473,433.696L666.984,434.222L667.603,434.671L669.234,435.21L669.873,435.599L670.211,436.344L670.64,436.344L670.64,435.739L671.07,435.739L670.962,438.284L670.175,439.76L668.866,440.635L665.01,442.263L664.381,442.782L664.029,443.739L664.228,444.765L664.765,445.572L665.455,445.878L665.455,446.482L664.596,446.482L664.596,446.987L668.293,448.913L669.781,449.218L669.53,450.997L669.132,451.375L668.063,450.941L668.799,452.636L670.093,461.165L670.349,461.632L671.07,462.119L671.913,462.447L673.672,462.818L674.506,463.175L675.825,464.205L676.392,464.374L677.507,464.288L678.428,463.947L678.99,463.586L679.481,463.718ZM1016.762,415.6L1016.215,416.431L1015.939,416.721L1015.939,417.232L1016.246,417.196L1016.312,417.336L1016.302,417.576L1016.507,418.31L1016.599,419.125L1016.762,419.518L1015.295,420.356L1013.73,421.54L1012.723,423.128L1012.933,425.168L1012.068,425.148L1011.373,425.355L1010.831,425.735L1010.361,426.238L1011.22,426.775L1011.649,426.848L1010.688,427.368L1009.962,428.088L1009.88,428.877L1010.831,429.587L1010.033,430.479L1010.386,431.372L1011.158,432.204L1011.649,432.943L1011.736,433.549L1011.659,433.616L1011.368,433.642L1010.831,434.112L1010.718,434.691L1010.662,435.499L1010.422,435.959L1009.757,435.479L1009.369,435.27L1007.569,434.671L1007.047,434.321L1006.945,433.553L1006.945,432.784L1006.735,432.434L1005.656,432.031L1004.618,430.376L1003.499,430.2L1004.94,429.187L1005.728,428.398L1006.076,427.658L1005.784,426.468L1005.084,425.678L1004.245,425.248L1003.499,425.168L1000.881,427.355L1001.463,427.348L1001.934,427.438L1002.317,427.641L1002.64,427.961L1001.52,428.148L1000.696,428.927L1000.093,430.056L999.633,431.265L1000.154,431.019L1000.287,430.936L1000.492,430.706L1001.198,431.595L1001.975,432.93L1002.384,434.135L1001.975,434.671L1000.604,434.591L999.495,434.375L997.496,433.553L998.912,431.275L999.173,430.986L998.856,430.116L998.16,430.386L997.434,431.179L997.025,431.875L996.596,431.875L996.565,431.235L996.458,430.886L996.309,430.616L996.166,430.2L992.525,431.339L991.84,431.875L991.452,431.875L991.666,431.355L991.886,430.932L992.208,430.559L992.73,430.2L992.377,430.046L991.922,429.717L991.452,429.587L991.544,428.877L991.452,428.521L991.84,428.181L992.26,427.961L992.26,427.355L991.84,427.355L991.84,426.848L992.127,426.748L992.3,426.628L992.73,426.238L992.26,426.238L992.781,425.062L992.515,424.348L991.922,423.738L991.452,422.878L991.39,421.717L991.487,420.626L991.349,419.825L990.593,419.518L990.593,418.958L992.807,418.824L996.81,417.843L997.439,418.013L997.843,418.39L998.109,418.774L998.314,418.958L999.295,418.818L1002.64,417.843L1004.035,418.37L1004.894,419.315L1005.605,420.506L1006.536,421.76L1006.413,422.394L1007.783,421.847L1009.496,420.836L1010.361,420.079L1010.361,419.365L1011.7,417.402L1012.503,416.721L1012.748,416.775L1014.436,416.721L1014.983,416.575ZM1031.893,381.727L1032.184,382.967L1031.386,383.76L1025.511,385.818L1024.131,385.674L1021.957,384.425L1017.795,381.062L1016.895,379.994L1016.364,378.905L1017.504,378.928L1021.19,376.77L1022.842,376.141L1024.678,376.191L1029.745,377.725L1030.711,378.441L1031.765,379.473L1032.322,380.629ZM975.074,357.951L973.76,358.012L973.371,358.919L973.831,359.904L975.074,360.208L975.074,361.857L974,362.231L973.78,363.371L974.21,365.871L974.644,366.821L974.823,367.468L974.68,368.128L974.246,368.189L973.146,367.488L972.921,367.845L972.441,368.438L971.331,368.876L969.26,369.256L968.503,369.556L966.974,371.01L966.018,371.569L965.722,370.808L965.287,370.209L964.305,369.256L964.106,369.212L963.584,369.32L963.411,369.256L963.38,369.037L963.446,368.327L963.411,368.128L962.531,367.316L962.122,367.054L960.383,366.626L959.013,366.579L958.134,365.901L957.832,363.607L958.231,361.462L959.177,359.348L961.268,356.25L966.018,352.236L968.048,353.252L970.61,353.556L971.638,353.931L971.888,354.448L972.062,355.228L972.4,355.936L973.136,356.25L973.79,356.409L974.384,356.814L974.834,357.364ZM918.393,671.782L918.593,672.171L918.69,672.51L918.393,672.663L917.933,672.337L917.918,671.772ZM891.712,665.67L891.999,666.009L892.193,666.847L891.978,667.036L891.595,666.844L891.416,666.307L891.395,666.156L891.262,666.057L891.303,665.67L891.088,665.059L891.487,665.165ZM1149.702,718.6L1152.893,718.78L1153.051,719.145L1153.031,719.912L1152.765,720.568L1152.494,720.815L1152.008,720.78L1150.781,721.123L1149.881,720.92L1148.751,720.863L1147.555,721.186L1146.762,720.787L1146.67,719.693L1147.243,718.98L1147.693,718.837L1148.634,718.666ZM1125.834,689.649L1126.391,690.333L1127.107,691.884L1126.601,693.355L1125.128,693.963L1124.3,693.976L1122.965,693.753L1122.311,693.26L1122.086,692.435L1122.781,690.868L1124.637,689.696ZM1106.107,648.928L1106.49,649.332L1107.052,650.307L1107.052,651.166L1106.603,651.313L1106.337,651.323L1106.316,651.608L1105.984,651.769L1105.462,651.826L1104.731,651.737L1103.954,651.243L1103.954,650.659L1104.649,650.207L1104.879,649.678L1104.296,649.633L1103.463,650.14L1102.676,650.05L1102.246,649.3L1102.486,648.61L1102.655,647.947L1101.995,647.542L1101.285,647.244L1100.86,646.724L1100.098,646.124L1099.879,645.098L1100.6,644.404L1101.469,644.475L1101.658,644.318L1101.612,643.788L1102.113,643.711L1102.676,644.141L1103.044,644.26L1103.279,644.186L1103.535,644.299L1103.775,644.437L1104.174,644.587L1104.721,644.732L1104.915,645.168L1104.496,646.003L1104.363,646.728L1105.002,647.003L1105.631,647.414L1105.979,648.383ZM1088.952,631.46L1089.258,631.933L1089.412,632.714L1089.079,632.888L1088.742,632.55L1088.317,632.299L1088.082,632.235L1087.852,632.145L1087.295,632.113L1086.748,632.544L1086.497,633.123L1086.415,633.489L1086.18,633.695L1085.812,633.74L1086.129,634.267L1086.84,635.174L1086.998,637.841L1086.344,638.111L1085.659,637.642L1085.72,637.131L1085.556,636.755L1084.8,636.491L1084.539,635.781L1084.871,633.852L1085.091,633.351L1085.183,632.827L1084.994,632.119L1084.861,631.045L1085.03,630.093L1085.577,630.061L1086.287,630.144L1087.054,629.958L1087.806,630.299L1088.42,630.746L1088.819,631.161ZM972.124,610.998L972.021,611.472L972.236,612.437L970.784,612.605L967.91,612.056L967.113,611.549L968.258,611.346L969.27,610.891L969.889,610.136L970.656,609.632L971.714,609.551L972.226,610.039ZM733.722,528.027L734.132,528.289L734.208,529.124L733.503,530.047L732.71,530.695L731.8,531.235L731.268,531.464L730.767,531.765L730.067,532.543L729.545,533.502L729.039,533.655L728.834,532.874L729.008,531.967L730.153,529.919L731.125,528.81L732.229,528.381ZM724.662,526.999L724.917,526.966L724.938,527.268L724.723,527.69L724.391,528.142L723.885,528.652L722.269,529.104L722.064,530.047L722.923,530.763L723.445,531.293L723.547,531.496L724.018,531.83L724.605,532.615L723.793,532.265L721.568,530.155L720.643,528.053L721.236,527.143L722.213,526.934L723.537,526.217L723.874,526.551L724.145,526.727L724.452,526.619L724.59,526.718L724.529,526.963ZM930.773,471.44L931.355,471.711L931.616,471.996L931.57,473.255L930.808,475.307L929.632,475.935L929.039,475.268L929.1,474.703L929.397,474.521L929.182,474.157L928.538,473.801L928.272,473.216L928.487,472.323L928.855,471.47L929.346,470.716L929.883,470.574L930.006,471.361L930.052,471.983L930.312,471.718Z" fill="#efe7d6" stroke="#8a6e46" stroke-width="1.5" />
  </g>
</svg>