<?xml version="1.0" encoding="UTF-8" standalone="no"?>
<!-- Created with Inkscape (http://www.inkscape.org/) -->

<svg
   xmlns:dc="http://purl.org/dc/elements/1.1/"
   xmlns:cc="http://creativecommons.org/ns#"
   xmlns:rdf="http://www.w3.org/1999/02/22-rdf-syntax-ns#"
   xmlns:svg="http://www.w3.org/2000/svg"
   xmlns="http://www.w3.org/2000/svg"
   xmlns:xlink="http://www.w3.org/1999/xlink"
   xmlns:inkscape="http://www.inkscape.org/namespaces/inkscape"
   version="1.1"
   width="378"
   height="378"
   viewBox="1 1 378 378"
   id="svg2">
  <title
     id="title4">Raven Matrix</title>
  <metadata
     id="metadata43">
    <rdf:RDF>
      <cc:Work
         rdf:about="">
        <dc:format>image/svg+xml</dc:format>
        <dc:type
           rdf:resource="http://purl.org/dc/dcmitype/StillImage" />
      </cc:Work>
    </rdf:RDF>
  </metadata>
  <defs
     id="defs41" />
  <path
     d="m 2,2 376,0 0,376 -376,0 z"
     inkscape:connector-curvature="0"
     id="path6"
     style="fill:#ffffff;stroke:#000000;stroke-width:1;stroke-linecap:butt;stroke-linejoin:miter" />
  <g
     id="Rectangle01"
     style="fill:none;stroke:#000000;stroke-width:1;stroke-linecap:butt;stroke-linejoin:miter;stroke-opacity:1">
    <path
       d="m 20,20 50,0 0,50 -50,0 z"
       inkscape:connector-curvature="0"
       id="path9"
       style="fill:#000000" />
    <path
       d="m 70,20 50,0 0,50 -50,0 z m -50,50 50,0 0,50 -50,0 z m 50,0 50,0 0,50 -50,0 z"
       inkscape:connector-curvature="0"
       id="path11" />
  </g>
  <use
     transform="matrix(0,1,-1,0,260,0)"
     id="use13"
     x="0"
     y="0"
     width="1"
     height="1"
     xlink:href="#Rectangle01" />
  <use
     transform="matrix(-1,0,0,-1,380,140)"
     id="use15"
     x="0"
     y="0"
     width="1"
     height="1"
     xlink:href="#Rectangle01" />
  <g
     id="Circle01"
     style="fill:none;stroke:#000000;stroke-width:1;stroke-linecap:butt;stroke-linejoin:miter">
    <path
       d="m 70,190 -50,0 a 50,50 0 0 1 50,-50 l 0,50 z"
       inkscape:connector-curvature="0"
       id="path18"
       style="fill:#000000" />
    <path
       d="m 70,190 0,-50 a 50,50 0 0 1 50,50 l -50,0 z"
       inkscape:connector-curvature="0"
       id="path20" />
    <path
       d="m 70,190 50,0 a 50,50 0 0 1 -50,50 l 0,-50 z"
       inkscape:connector-curvature="0"
       id="path22" />
    <path
       d="m 70,190 0,50 A 50,50 0 0 1 20,190 l 50,0 z"
       inkscape:connector-curvature="0"
       id="path24" />
  </g>
  <use
     transform="matrix(0,1,-1,0,380,120)"
     id="use26"
     x="0"
     y="0"
     width="1"
     height="1"
     xlink:href="#Circle01" />
  <use
     transform="matrix(-1,0,0,-1,380,380)"
     id="use28"
     x="0"
     y="0"
     width="1"
     height="1"
     xlink:href="#Circle01" />
  <g
     id="Lozenge01"
     style="fill:none;stroke:#000000;stroke-width:1;stroke-linecap:butt;stroke-linejoin:miter">
    <path
       d="M 70,310 45,335 20,310 45,285 z"
       inkscape:connector-curvature="0"
       id="path31"
       style="fill:#000000" />
    <path
       d="m 70,310 -25,-25 25,-25 25,25 z m 0,0 25,-25 25,25 -25,25 z m 0,0 25,25 -25,25 -25,-25 z"
       inkscape:connector-curvature="0"
       id="path33" />
  </g>
  <use
     transform="matrix(0,1,-1,0,500,240)"
     id="use35"
     x="0"
     y="0"
     width="1"
     height="1"
     xlink:href="#Lozenge01" />
  <rect
     width="100"
     height="100"
     x="260"
     y="260"
     id="rect37"
     style="fill:none;stroke:#000000;stroke-width:1;stroke-linecap:butt;stroke-linejoin:miter;stroke-miterlimit:4" />
</svg>
