<?xml version="1.0" encoding="UTF-8" standalone="no"?>
<!-- Created with Inkscape (http://www.inkscape.org/) -->

<svg
   xmlns:dc="http://purl.org/dc/elements/1.1/"
   xmlns:cc="http://creativecommons.org/ns#"
   xmlns:rdf="http://www.w3.org/1999/02/22-rdf-syntax-ns#"
   xmlns:svg="http://www.w3.org/2000/svg"
   xmlns="http://www.w3.org/2000/svg"
   xmlns:inkscape="http://www.inkscape.org/namespaces/inkscape"
   version="1.1"
   width="600"
   height="480"
   viewBox="0 0 600 480"
   id="svg2">
  <title
     id="title4">IQ_curve</title>
  <desc
     id="desc6">Produced by GNUPLOT 4.6 patchlevel 0 </desc>
  <metadata
     id="metadata152">
    <rdf:RDF>
      <cc:Work
         rdf:about="">
        <dc:format>image/svg+xml</dc:format>
        <dc:type
           rdf:resource="http://purl.org/dc/dcmitype/StillImage" />
      </cc:Work>
    </rdf:RDF>
  </metadata>
  <defs
     id="defs150" />
  <g
     id="gnuplot_canvas">
    <rect
       width="600"
       height="480"
       x="0"
       y="0"
       id="rect9"
       style="fill:none" />
    <defs
       id="defs11" />
    <g
       id="g27"
       style="color:#ffffff;fill:none;stroke:currentColor;stroke-width:1;stroke-linecap:round;stroke-linejoin:round" />
    <g
       id="g29"
       style="color:#000000;fill:none;stroke:currentColor;stroke-width:1;stroke-linecap:round;stroke-linejoin:round">
      <path
         d="m 53.5,424.5 -7.5,0 h 0.01"
         inkscape:connector-curvature="0"
         id="path31" />
      <g
         transform="translate(39.1,428.2)"
         id="g33"
         style="font-size:12.5px;text-anchor:end;fill:#000000;stroke:none;font-family:Arial">
        <text
           id="text35">0</text>
      </g>
      <path
         d="m 53.5,356.1 -3.7,0 m 3.7,-68.5 -7.5,0 h 0.01"
         inkscape:connector-curvature="0"
         id="path37" />
      <g
         transform="translate(39.1,291.3)"
         id="g39"
         style="font-size:12.5px;text-anchor:end;fill:#000000;stroke:none;font-family:Arial">
        <text
           id="text41">1</text>
      </g>
      <path
         d="m 53.5,219.2 -3.7,0 m 3.7,-68.4 -7.5,0 h 0.01"
         inkscape:connector-curvature="0"
         id="path43" />
      <g
         transform="translate(39.1,154.5)"
         id="g45"
         style="font-size:12.5px;text-anchor:end;fill:#000000;stroke:none;font-family:Arial">
        <text
           id="text47">2</text>
      </g>
      <path
         d="m 53.5,82.3 -3.7,0 m 3.7,-68.4 -7.5,0 h 0.01"
         inkscape:connector-curvature="0"
         id="path49" />
      <g
         transform="translate(39.1,17.6)"
         id="g51"
         style="font-size:12.5px;text-anchor:end;fill:#000000;stroke:none;font-family:Arial">
        <text
           id="text53">3</text>
      </g>
      <path
         d="m 53.5,424.5 0,3.7 m 29.2,-3.7 0,7.5 h 0.01"
         inkscape:connector-curvature="0"
         id="path55" />
      <g
         transform="translate(82.7,450.7)"
         id="g57"
         style="font-size:12.5px;text-anchor:middle;fill:#000000;stroke:none;font-family:Arial">
        <text
           id="text59">60</text>
      </g>
      <path
         d="m 111.9,424.5 0,3.7 m 29.2,-3.7 0,7.5 h 0.01"
         inkscape:connector-curvature="0"
         id="path61" />
      <g
         transform="translate(141.1,450.7)"
         id="g63"
         style="font-size:12.5px;text-anchor:middle;fill:#000000;stroke:none;font-family:Arial">
        <text
           id="text65">70</text>
      </g>
      <path
         d="m 170.3,424.5 0,3.7 m 29.2,-3.7 0,7.5 h 0.01"
         inkscape:connector-curvature="0"
         id="path67" />
      <g
         transform="translate(199.5,450.7)"
         id="g69"
         style="font-size:12.5px;text-anchor:middle;fill:#000000;stroke:none;font-family:Arial">
        <text
           id="text71">80</text>
      </g>
      <path
         d="m 228.7,424.5 0,3.7 m 29.2,-3.7 0,7.5 h 0.01"
         inkscape:connector-curvature="0"
         id="path73" />
      <g
         transform="translate(257.9,450.7)"
         id="g75"
         style="font-size:12.5px;text-anchor:middle;fill:#000000;stroke:none;font-family:Arial">
        <text
           id="text77">90</text>
      </g>
      <path
         d="m 287.1,424.5 0,3.7 m 29.3,-3.7 0,7.5 h 0.01"
         inkscape:connector-curvature="0"
         id="path79" />
      <g
         transform="translate(316.4,450.7)"
         id="g81"
         style="font-size:12.5px;text-anchor:middle;fill:#000000;stroke:none;font-family:Arial">
        <text
           id="text83">100</text>
      </g>
      <path
         d="m 345.6,424.5 0,3.7 m 29.2,-3.7 0,7.5 h 0.01"
         inkscape:connector-curvature="0"
         id="path85" />
      <g
         transform="translate(374.8,450.7)"
         id="g87"
         style="font-size:12.5px;text-anchor:middle;fill:#000000;stroke:none;font-family:Arial">
        <text
           id="text89">110</text>
      </g>
      <path
         d="m 404,424.5 0,3.7 m 29.2,-3.7 0,7.5 h 0.01"
         inkscape:connector-curvature="0"
         id="path91" />
      <g
         transform="translate(433.2,450.7)"
         id="g93"
         style="font-size:12.5px;text-anchor:middle;fill:#000000;stroke:none;font-family:Arial">
        <text
           id="text95">120</text>
      </g>
      <path
         d="m 462.4,424.5 0,3.7 m 29.2,-3.7 0,7.5 h 0.01"
         inkscape:connector-curvature="0"
         id="path97" />
      <g
         transform="translate(491.6,450.7)"
         id="g99"
         style="font-size:12.5px;text-anchor:middle;fill:#000000;stroke:none;font-family:Arial">
        <text
           id="text101">130</text>
      </g>
      <path
         d="m 520.8,424.5 0,3.7 m 29.2,-3.7 0,7.5 h 0.01"
         inkscape:connector-curvature="0"
         id="path103" />
      <g
         transform="translate(550,450.7)"
         id="g105"
         style="font-size:12.5px;text-anchor:middle;fill:#000000;stroke:none;font-family:Arial">
        <text
           id="text107">140</text>
      </g>
      <path
         d="m 579.2,424.5 0,3.7 M 53.5,13.9 l 0,410.6 525.7,0 m 0,-410.6 m -525.7,0 h 0.01"
         inkscape:connector-curvature="0"
         id="path109" />
      <g
         transform="matrix(0,-1,1,0,14.6,219.2)"
         id="g111"
         style="font-size:12.5px;text-anchor:middle;fill:#000000;stroke:none;font-family:Arial">
        <text
           id="text113">Population, %</text>
      </g>
      <g
         transform="translate(316.3,473.2)"
         id="g115"
         style="font-size:12.5px;text-anchor:middle;fill:#000000;stroke:none;font-family:Arial">
        <text
           id="text117">IQ</text>
      </g>
    </g>
    <g
       id="IQ_curve_plot_1">
      <title
         id="title120">IQ_curve_plot_1</title>
      <g
         id="g122"
         style="color:#ffffff;fill:none;stroke:currentColor;stroke-width:2;stroke-linecap:round;stroke-linejoin:round" />
      <g
         id="g124"
         style="color:#ff0000;fill:none;stroke:currentColor;stroke-width:2;stroke-linecap:round;stroke-linejoin:round">
        <path
           d="m 316.4,424.5 0,-364 h 0.01"
           inkscape:connector-curvature="0"
           id="path126" />
      </g>
    </g>
    <g
       id="IQ_curve_plot_2">
      <title
         id="title129">IQ_curve_plot_2</title>
      <g
         id="g131"
         style="color:#008000;fill:none;stroke:currentColor;stroke-width:2;stroke-linecap:round;stroke-linejoin:round">
        <path
           d="m 59.3,424.5 0,-4.9 m 5.9,4.9 0,-6 m 5.8,6 0,-7.2 m 5.9,7.2 0,-8.7 m 5.8,8.7 0,-10.4 m 5.8,10.4 0,-12.4 m 5.9,12.4 0,-14.7 m 5.8,14.7 0,-17.4 m 5.9,17.4 0,-20.4 m 5.8,20.4 0,-23.9 m 5.9,23.9 0,-27.9 m 5.8,27.9 0,-32.4 m 5.8,32.4 0,-37.4 m 5.9,37.4 0,-43 m 5.8,43 0,-49.3 m 93.5,49.3 0,-235.5 m 5.8,235.5 0,-250 m 5.9,250 0,-264.3 m 5.8,264.3 0,-278.2 m 5.8,278.2 0,-291.5 m 5.9,291.5 0,-304 m 5.8,304 0,-315.8 m 5.9,315.8 0,-326.5 m 5.8,326.5 0,-336 m 5.8,336 0,-344.3 m 5.9,344.3 0,-351.3 m 5.8,351.3 0,-356.8 m 5.9,356.8 0,-360.8 m 5.8,360.8 0,-363.2 m 93.5,363.2 0,-220.8 m 5.8,220.8 0,-206.1 m 5.8,206.1 0,-191.5 m 5.9,191.5 0,-177.2 m 5.8,177.2 0,-163.2 m 5.9,163.2 0,-149.7 m 5.8,149.7 0,-136.6 m 5.9,136.6 0,-124.2 m 5.8,124.2 0,-112.4 m 5.8,112.4 0,-101.2 m 5.9,101.2 0,-90.8 m 5.8,90.8 0,-81 m 5.9,81 0,-72 m 5.8,72 0,-63.7 m 5.8,63.7 0,-56.2 m 93.5,56.2 0,-4 h 0.01"
           inkscape:connector-curvature="0"
           id="path133" />
      </g>
    </g>
    <g
       id="IQ_curve_plot_3">
      <title
         id="title136">IQ_curve_plot_3</title>
      <g
         id="g138"
         style="color:#0000ff;fill:none;stroke:currentColor;stroke-width:2;stroke-linecap:round;stroke-linejoin:round">
        <path
           d="m 53.5,424.5 0,-4 m 93.5,4 0,-56.2 m 5.8,56.2 0,-63.7 m 5.8,63.7 0,-72 m 5.9,72 0,-81 m 5.8,81 0,-90.8 m 5.9,90.8 0,-101.2 m 5.8,101.2 0,-112.4 m 5.8,112.4 0,-124.2 m 5.9,124.2 0,-136.6 m 5.8,136.6 0,-149.7 m 5.9,149.7 0,-163.2 m 5.8,163.2 0,-177.2 m 5.9,177.2 0,-191.5 m 5.8,191.5 0,-206.1 m 5.8,206.1 0,-220.8 m 93.5,220.8 0,-363.2 m 5.8,363.2 0,-360.8 m 5.9,360.8 0,-356.8 m 5.8,356.8 0,-351.3 m 5.9,351.3 0,-344.3 m 5.8,344.3 0,-336 m 5.8,336 0,-326.5 m 5.9,326.5 0,-315.8 m 5.8,315.8 0,-304 m 5.9,304 0,-291.5 m 5.8,291.5 0,-278.2 m 5.8,278.2 0,-264.3 m 5.9,264.3 0,-250 m 5.8,250 0,-235.5 m 93.5,235.5 0,-49.3 m 5.8,49.3 0,-43 m 5.9,43 0,-37.4 m 5.8,37.4 0,-32.4 m 5.8,32.4 0,-27.9 m 5.9,27.9 0,-23.9 m 5.8,23.9 0,-20.4 m 5.9,20.4 0,-17.4 m 5.8,17.4 0,-14.7 m 5.9,14.7 0,-12.4 m 5.8,12.4 0,-10.4 m 5.8,10.4 0,-8.7 m 5.9,8.7 0,-7.2 m 5.8,7.2 0,-6 m 5.9,6 0,-4.9 h 0.01"
           inkscape:connector-curvature="0"
           id="path140" />
      </g>
    </g>
    <g
       id="g142"
       style="color:#ffffff;fill:none;stroke:currentColor;stroke-width:1;stroke-linecap:round;stroke-linejoin:round" />
    <g
       id="g144"
       style="color:#000000;fill:none;stroke:currentColor;stroke-width:1;stroke-linecap:round;stroke-linejoin:round">
      <path
         d="m 53.5,13.9 0,410.6 525.7,0 m 0,-410.6 m -525.7,0 h 0.01"
         inkscape:connector-curvature="0"
         id="path146" />
    </g>
  </g>
</svg>
