<svg width="1000" height="900" xmlns="http://www.w3.org/2000/svg">
  <!-- Background -->
  <rect width="100%" height="100%" fill="#f0f0f0"/>

  <!-- Grid settings -->
  <defs>
    <style>
      .block { fill: #ffffff; stroke: #333333; stroke-width: 2; }
      .blue { stroke: #0000FF; stroke-width: 4; }
      .red { stroke: #FF0000; stroke-width: 4; }
      .green { stroke: #00FF00; stroke-width: 4; }
      .yellow { stroke: yellow; stroke-width: 4; }
      .orange { stroke: orange; stroke-width: 4; }
      .purple { stroke: purple; stroke-width: 4; }
      .pink { stroke: pink; stroke-width: 4; }
      .gray{ stroke: gray; stroke-width: 4; }
      .brown { stroke: brown; stroke-width: 4; }
      .subroutine { stroke: #0074D9; stroke-width: 2; }
      .pascal { font-family: Arial; font-size: 14px; text-anchor: middle; dominant-baseline: central; fill: #111111; }
    </style>
  </defs>

  <!-- Draw city blocks and Pascal values -->
  <g>
    <!-- (x=0..8, y=0..7) -->
    <!-- Scale: block size = 80, spacing = 40 -->
    <!-- We'll manually write a few representative blocks, pattern repeats -->
    <!-- Origin (0,0) -->
    <rect x="50" y="650" width="80" height="80" class="block"/>
    <text x="90" y="690" class="pascal">792</text>

    <!-- (1,0) -->
    <rect x="170" y="650" width="80" height="80" class="block"/>
    <text x="210" y="690" class="pascal">462</text>

    <!-- (0,1) -->
    <rect x="50" y="530" width="80" height="80" class="block"/>
    <text x="90" y="570" class="pascal">330</text>

    <!-- (1,1) -->
    <rect x="170" y="530" width="80" height="80" class="block"/>
    <text x="210" y="570" class="pascal">210</text>

    <!-- (2,0) -->
    <rect x="290" y="650" width="80" height="80" class="block"/>
    <text x="330" y="690" class="pascal">252</text>

    <!-- (0,2) -->
    <rect x="50" y="410" width="80" height="80" class="block"/>
    <text x="90" y="450" class="pascal">120</text>

    <!-- (2,1) -->
    <rect x="290" y="530" width="80" height="80" class="block"/>
    <text x="330" y="570" class="pascal">126</text>

    <!-- (1,2) -->
    <rect x="170" y="410" width="80" height="80" class="block"/>
    <text x="210" y="450" class="pascal">84</text>

    <!-- (2,2) -->
    <rect x="290" y="410" width="80" height="80" class="block"/>
    <text x="330" y="450" class="pascal">56</text>

    <rect x="410" y="530" width="80" height="80" class="block"/>
    <rect x="530" y="530" width="80" height="80" class="block"/>
    <rect x="650" y="530" width="80" height="80" class="block"/>
    <rect x="770" y="530" width="80" height="80" class="block"/>
    <rect x="890" y="530" width="80" height="80" class="block"/>
    <rect x="410" y="530" width="80" height="80" class="block"/>
    <rect x="530" y="530" width="80" height="80" class="block"/>
    <rect x="650" y="530" width="80" height="80" class="block"/>
    <rect x="770" y="530" width="80" height="80" class="block"/>
    <rect x="890" y="530" width="80" height="80" class="block"/>
    <rect x="410" y="530" width="80" height="80" class="block"/>
    <rect x="530" y="530" width="80" height="80" class="block"/>
    <rect x="650" y="530" width="80" height="80" class="block"/>
    <rect x="770" y="530" width="80" height="80" class="block"/>
    <rect x="890" y="530" width="80" height="80" class="block"/>
    <rect x="410" y="530" width="80" height="80" class="block"/>
    
    <rect x="50" y="290" width="80" height="80" class="block"/>
    <rect x="170" y="290" width="80" height="80" class="block"/>
    <rect x="290" y="290" width="80" height="80" class="block"/>
    <rect x="410" y="290" width="80" height="80" class="block"/>
    <rect x="530" y="290" width="80" height="80" class="block"/>
    <rect x="650" y="290" width="80" height="80" class="block"/>
    <rect x="770" y="290" width="80" height="80" class="block"/>
    <rect x="890" y="290" width="80" height="80" class="block"/>

    <rect x="410" y="410" width="80" height="80" class="block"/>
    <rect x="530" y="410" width="80" height="80" class="block"/>
    <rect x="650" y="410" width="80" height="80" class="block"/>
    <rect x="770" y="410" width="80" height="80" class="block"/>
    <rect x="890" y="410" width="80" height="80" class="block"/>

    <rect x="410" y="530" width="80" height="80" class="block"/>
    <rect x="530" y="530" width="80" height="80" class="block"/>
    <rect x="650" y="530" width="80" height="80" class="block"/>
    <rect x="770" y="530" width="80" height="80" class="block"/>
    <rect x="890" y="530" width="80" height="80" class="block"/>


    <rect x="410" y="650" width="80" height="80" class="block"/>
    <rect x="530" y="650" width="80" height="80" class="block"/>
    <rect x="650" y="650" width="80" height="80" class="block"/>
    <rect x="770" y="650" width="80" height="80" class="block"/>
    <rect x="890" y="650" width="80" height="80" class="block"/>







    <rect x="50" y="770" width="80" height="80" class="block"/>
    <rect x="170" y="770" width="80" height="80" class="block"/>
    <rect x="290" y="770" width="80" height="80" class="block"/>
    <rect x="410" y="770" width="80" height="80" class="block"/>
    <rect x="530" y="770" width="80" height="80" class="block"/>
    <rect x="650" y="770" width="80" height="80" class="block"/>
    <rect x="770" y="770" width="80" height="80" class="block"/>
    <rect x="890" y="770" width="80" height="80" class="block"/>
//
    <rect x="50" y="50" width="80" height="80" class="block"/>
    <rect x="170" y="50" width="80" height="80" class="block"/>
    <rect x="290" y="50" width="80" height="80" class="block"/>
    <rect x="410" y="50" width="80" height="80" class="block"/>
    <rect x="530" y="50" width="80" height="80" class="block"/>
    <rect x="650" y="50" width="80" height="80" class="block"/>
    <rect x="770" y="50" width="80" height="80" class="block"/>
    <rect x="890" y="50" width="80" height="80" class="block"/>
//
    <rect x="50" y="170" width="80" height="80" class="block"/>
    <rect x="170" y="170" width="80" height="80" class="block"/>
    <rect x="290" y="170" width="80" height="80" class="block"/>
    <rect x="410" y="170" width="80" height="80" class="block"/>
    <rect x="530" y="170" width="80" height="80" class="block"/>
    <rect x="650" y="170" width="80" height="80" class="block"/>
    <rect x="770" y="170" width="80" height="80" class="block"/>
    <rect x="890" y="170" width="80" height="80" class="block"/>



// First routine: 1 path added; total paths 1
    <line x1="50" y1="870" x2="990" y2="870" class="blue"/>
    <line x1="990" y1="870" x2="990" y2="50" class="blue"/>

// Second routine: 7 paths added; total paths 8
    <line x1="870" y1="870" x2="870" y2="30" class="red"/>
    <line x1="870" y1="30" x2="970" y2="30" class="red"/>
    <line x1="870" y1="150" x2="970" y2="150" class="red"/>
    <line x1="870" y1="270" x2="970" y2="270" class="red"/>
    <line x1="870" y1="390" x2="970" y2="390" class="red"/>
    <line x1="870" y1="510" x2="970" y2="510" class="red"/>
    <line x1="870" y1="630" x2="970" y2="630" class="red"/>
    <line x1="870" y1="750" x2="970" y2="750" class="red"/>


// Third routine: 28 paths added; total paths 36
    <line x1="750" y1="870" x2="750" y2="30" class="green"/>
    <line x1="750" y1="30" x2="850" y2="30" class="green"/>
    <line x1="750" y1="150" x2="850" y2="150" class="green"/>
    <line x1="750" y1="270" x2="850" y2="270" class="green"/>
    <line x1="750" y1="390" x2="850" y2="390" class="green"/>
    <line x1="750" y1="510" x2="850" y2="510" class="green"/>
    <line x1="750" y1="630" x2="850" y2="630" class="green"/>
    <line x1="750" y1="750" x2="850" y2="750" class="green"/>


// Fourth routine: 28 paths added; total paths 36
    <line x1="630" y1="870" x2="630" y2="30" class="yellow"/>
    <line x1="630" y1="30"  x2="730" y2="30" class="yellow"/>
    <line x1="630" y1="150" x2="730" y2="150" class="yellow"/>
    <line x1="630" y1="270" x2="730" y2="270" class="yellow"/>
    <line x1="630" y1="390" x2="730" y2="390" class="yellow"/>
    <line x1="630" y1="510" x2="730" y2="510" class="yellow"/>
    <line x1="630" y1="630" x2="730" y2="630" class="yellow"/>
    <line x1="630" y1="750" x2="730" y2="750" class="yellow"/>

// Fifth routine: 28 paths added; total paths 36
    <line x1="510" y1="870" x2="510" y2="30" class="orange"/>
    <line x1="510" y1="30" x2="610" y2="30" class="orange"/>
    <line x1="510" y1="150" x2="610" y2="150" class="orange"/>
    <line x1="510" y1="270" x2="610" y2="270" class="orange"/>
    <line x1="510" y1="390" x2="610" y2="390" class="orange"/>
    <line x1="510" y1="510" x2="610" y2="510" class="orange"/>
    <line x1="510" y1="630" x2="610" y2="630" class="orange"/>
    <line x1="510" y1="750" x2="610" y2="750" class="orange"/>

// Sixth routine: 28 paths added; total paths 36
    <line x1="390" y1="870" x2="390" y2="30" class="pink"/>
    <line x1="390" y1="30" x2="490" y2="30" class="pink"/>
    <line x1="390" y1="150" x2="490" y2="150" class="pink"/>
    <line x1="390" y1="270" x2="490" y2="270" class="pink"/>
    <line x1="390" y1="390" x2="490" y2="390" class="pink"/>
    <line x1="390" y1="510" x2="490" y2="510" class="pink"/>
    <line x1="390" y1="630" x2="490" y2="630" class="pink"/>
    <line x1="390" y1="750" x2="490" y2="750" class="pink"/>

// Seventh routine: 28 paths added; total paths 36
    <line x1="270" y1="870" x2="270" y2="30" class="purple"/>
    <line x1="270" y1="30" x2="370" y2="30" class="purple"/>
    <line x1="270" y1="150" x2="370" y2="150" class="purple"/>
    <line x1="270" y1="270" x2="370" y2="270" class="purple"/>
    <line x1="270" y1="390" x2="370" y2="390" class="purple"/>
    <line x1="270" y1="510" x2="370" y2="510" class="purple"/>
    <line x1="270" y1="630" x2="370" y2="630" class="purple"/>
    <line x1="270" y1="750" x2="370" y2="750" class="purple"/>

// Eighth routine: 28 paths added; total paths 36
    <line x1="150" y1="870" x2="150" y2="30" class="gray"/>
    <line x1="150" y1="30" x2="250" y2="30" class="gray"/>
    <line x1="150" y1="150" x2="250" y2="150" class="gray"/>
    <line x1="150" y1="270" x2="250" y2="270" class="gray"/>
    <line x1="150" y1="390" x2="250" y2="390" class="gray"/>
    <line x1="150" y1="510" x2="250" y2="510" class="gray"/>
    <line x1="150" y1="630" x2="250" y2="630" class="gray"/>
    <line x1="150" y1="750" x2="250" y2="750" class="gray"/>


// Nineth routine: 28 paths added; total paths 36
    <line x1="50" y1="870" x2="50" y2="30" class="brown"/>
    <line x1="50" y1="30" x2="130" y2="30" class="brown"/>
    <line x1="50" y1="150" x2="130" y2="150" class="brown"/>
    <line x1="50" y1="270" x2="130" y2="270" class="brown"/>
    <line x1="50" y1="390" x2="130" y2="390" class="brown"/>
    <line x1="50" y1="510" x2="130" y2="510" class="brown"/>
    <line x1="50" y1="630" x2="130" y2="630" class="brown"/>
    <line x1="50" y1="750" x2="130" y2="750" class="brown"/>




  </g>
</svg>
