<svg xmlns="http://www.w3.org/2000/svg" viewBox="0 0 800 180" width="100%" role="img" aria-labelledby="title desc">
  <title id="title">Number Line from −10 to 10</title>
  <desc id="desc"></desc>

  <style>
    /* ======= easy-to-tweak variables ======= */
   
    .tick { stroke: var(--tick); stroke-width: 2; }
    .tick.major { stroke-width: 3; }
    .label { fill: var(--label); font-size: 14px; dominant-baseline: hanging; text-anchor: middle; }
    .label.major { fill: var(--major); font-weight: 600; }
    .label.zero { fill: var(--zero); font-weight: 700; }
  </style>


<line x1="60" y1="90" x2="400" y2="90" stroke="red" stroke-width="2"/>
<line x1="400" y1="90" x2="740" y2="90" stroke="blue" stroke-width="2"/>

 <line  x1="60" y1="72" x2="60" y2="108"  stroke="black" stroke-width="3"/>
    <text class="label major" x="60" y="110" stroke="red" stroke-width="0.1">−10</text>

    <!-- -9 -->
    <line  x1="94" y1="78" x2="94" y2="102" stroke="black" stroke-width="2"/>
    <text class="label" x="94" y="104" stroke="red" stroke-width="0.1">−9</text>

    <!-- -8 -->
    <line  x1="128" y1="78" x2="128" y2="102" stroke="black" stroke-width="2"/>
    <text class="label" x="128" y="104" stroke="red" stroke-width="0.1">−8</text>

    <!-- -7 -->
    <line  x1="162" y1="78" x2="162" y2="102" stroke="black" stroke-width="2"/>
    <text class="label" x="162" y="104" stroke="red" stroke-width="0.1">−7</text>

    <!-- -6 -->
    <line x1="196" y1="78" x2="196" y2="102" stroke="black" stroke-width="2"/>
    <text class="label" x="196" y="104" stroke="red" stroke-width="0.1">−6</text>

    <!-- -5 -->
    <line x1="230" y1="72" x2="230" y2="108" stroke="black" stroke-width="3"/>
    <text class="label major" x="230" y="110" stroke="red" stroke-width="0.1">−5</text>

    <!-- -4 -->
    <line x1="264" y1="78" x2="264" y2="102"  stroke="black" stroke-width="2"/>
    <text class="label" x="264" y="104" stroke="red" stroke-width="0.1">−4</text>

    <!-- -3 -->
    <line x1="298" y1="78" x2="298" y2="102" stroke="black" stroke-width="2" />
    <text class="label" x="298" y="104" stroke="red" stroke-width="0.1">−3</text>

    <!-- -2 -->
    <line x1="332" y1="78" x2="332" y2="102" stroke="black" stroke-width="2"/>
    <text class="label" x="332" y="104" stroke="red" stroke-width="0.1">−2</text>

    <!-- -1 -->
    <line x1="366" y1="78" x2="366" y2="102" stroke="black" stroke-width="2"/>
    <text class="label" x="366" y="104" stroke="red" stroke-width="0.1">−1</text>

    <!-- 0 -->
    <line x1="400" y1="72" x2="400" y2="108" stroke="black" stroke-width="3"/>
    <text class="label major" x="400" y="114">0</text>

    <!-- 1 -->
    <line x1="434" y1="78" x2="434" y2="102" stroke="black" stroke-width="2"/>
    <text class="label" x="434" y="104" stroke="blue" stroke-width="0.1">1</text>

    <!-- 2 -->
    <line x1="468" y1="78" x2="468" y2="102" stroke="black" stroke-width="2"/>
    <text class="label" x="468" y="104" stroke="blue" stroke-width="0.1">2</text>

    <!-- 3 -->
    <line x1="502" y1="78" x2="502" y2="102" stroke="black" stroke-width="2"/>
    <text class="label" x="502" y="104" stroke="blue" stroke-width="0.1">3</text>

    <!-- 4 -->
    <line x1="536" y1="78" x2="536" y2="102" stroke="black" stroke-width="2"/>
    <text class="label" x="536" y="104" stroke="blue" stroke-width="0.1">4</text>

    <!-- 5 -->
    <line x1="570" y1="72" x2="570" y2="108" stroke="black" stroke-width="2"/>
    <text class="label major" x="570" y="110" stroke="blue" stroke-width="0.1">5</text>

    <!-- 6 -->
    <line x1="604" y1="78" x2="604" y2="102" stroke="black" stroke-width="2"/>
    <text class="label" x="604" y="104" stroke="blue" stroke-width="0.1">6</text>

    <!-- 7 -->
    <line x1="638" y1="78" x2="638" y2="102" stroke="black" stroke-width="2"/>
    <text class="label" x="638" y="104" stroke="blue" stroke-width="0.1">7</text>

    <!-- 8 -->
    <line x1="672" y1="78" x2="672" y2="102" stroke="black" stroke-width="2"/>
    <text class="label" x="672" y="104" stroke="blue" stroke-width="0.1">8</text>

    <!-- 9 -->
    <line x1="706" y1="78" x2="706" y2="102" stroke="black" stroke-width="2"/>
    <text class="label" x="706" y="104" stroke="blue" stroke-width="0.1">9</text>

    <!-- 10 -->
    <line x1="740" y1="72" x2="740" y2="108" stroke="black" stroke-width="3"/>
    <text class="label major" x="740" y="110" stroke="blue" stroke-width="0.2">10</text>

    <!-- captions -->
    <text class="caption" x="60" y="38" text-anchor="start">Negative numbers</text>
    <text class="caption" x="740" y="38" text-anchor="end">Positive numbers</text>
  
</svg>