<!-- Number Line SVG (−10 to 10) -->
<svg xmlns="http://www.w3.org/2000/svg" viewBox="0 0 800 180" width="100%" role="img" aria-labelledby="title desc">
  <title id="title">Number Line from −10 to 10</title>
  <desc id="desc">A horizontal number line with arrows, negative side lightly red, positive side lightly green, and zero highlighted.</desc>

  <style>
    /* ======= easy-to-tweak variables ======= */
    .vars {
      --bg: #ffffff;
      --axis: #222;
      --tick: #333;
      --label: #111;
      --major: #000;
      --zero: #0057ff;
      --negFill: #ffaaaa;
      --posFill: #aaaaff;
      --negStroke: #ff6b6b;
      --posStroke: #49a04d;
      --font: ui-sans-serif, system-ui, -apple-system, Segoe UI, Roboto, Helvetica, Arial, "Apple Color Emoji","Segoe UI Emoji";
    }
    svg { background: var(--bg); font-family: var(--font); }
    .axis-line { stroke: var(--axis); stroke-width: 3; }
    .region.neg { fill: var(--negFill); stroke: var(--negStroke); }
    .region.pos { fill: var(--posFill); stroke: var(--posStroke); }
    .zero-line { stroke: var(--zero); stroke-width: 3; }
    .tick { stroke: var(--tick); stroke-width: 2; }
    .tick.major { stroke-width: 3; }
    .label { fill: var(--label); font-size: 14px; dominant-baseline: hanging; text-anchor: middle; }
    .label.major { fill: var(--major); font-weight: 600; }
    .label.zero { fill: var(--zero); font-weight: 700; }
    .caption { fill: #666; font-size: 12px; }
  </style>

  <!-- defs for arrowheads -->
  <defs>
    <marker id="arrowEnd" viewBox="0 0 12 12" refX="10" refY="6" markerWidth="10" markerHeight="10" orient="auto-start-reverse">
      <path d="M0,0 L12,6 L0,12 Z" fill="currentColor"/>
    </marker>
  </defs>

  <!-- coordinate helpers -->
  <!-- Axis runs from x=60 to x=740, centered vertically at y=90.
       Step (one unit) = 34px. x(n) = 60 + (n + 10) * 34 -->
  <g class="vars">
    <!-- colored regions -->
    <rect class="region neg" x="60" y="64" width="340" height="52" rx="6" />
    <rect class="region pos" x="400" y="64" width="340" height="52" rx="6" />

    <!-- main axis with arrows -->
    <g stroke="currentColor" color="var(--axis)">
      <line class="axis-line" x1="60" y1="90" x2="740" y2="90" marker-start="url(#arrowEnd)" marker-end="url(#arrowEnd)"/>
    </g>

    <!-- zero highlight -->
    <line class="zero-line" x1="400" y1="56" x2="400" y2="124"/>

    <!-- ticks & labels -->
    <!-- minor ticks each integer, taller for major multiples of 5 -->
    <!-- We’ll list all integers from -10 to 10 -->
    <!-- Helper: function for position in comments
         x(-10)=60, -9=94, -8=128, -7=162, -6=196, -5=230, -4=264, -3=298, -2=332, -1=366,
         0=400, 1=434, 2=468, 3=502, 4=536, 5=570, 6=604, 7=638, 8=672, 9=706, 10=740
    -->
    <!-- Generate ticks -->
    <!-- y top/bottom for minor: 78..102, for major: 72..108 -->
    <!-- -10 -->
    <line class="tick major" x1="60" y1="72" x2="60" y2="108" />
    <text class="label major" x="60" y="110">−10</text>

    <!-- -9 -->
    <line class="tick" x1="94" y1="78" x2="94" y2="102" />
    <text class="label" x="94" y="104">−9</text>

    <!-- -8 -->
    <line class="tick" x1="128" y1="78" x2="128" y2="102" />
    <text class="label" x="128" y="104">−8</text>

    <!-- -7 -->
    <line class="tick" x1="162" y1="78" x2="162" y2="102" />
    <text class="label" x="162" y="104">−7</text>

    <!-- -6 -->
    <line class="tick" x1="196" y1="78" x2="196" y2="102" />
    <text class="label" x="196" y="104">−6</text>

    <!-- -5 -->
    <line class="tick major" x1="230" y1="72" x2="230" y2="108" />
    <text class="label major" x="230" y="110">−5</text>

    <!-- -4 -->
    <line class="tick" x1="264" y1="78" x2="264" y2="102" />
    <text class="label" x="264" y="104">−4</text>

    <!-- -3 -->
    <line class="tick" x1="298" y1="78" x2="298" y2="102" />
    <text class="label" x="298" y="104">−3</text>

    <!-- -2 -->
    <line class="tick" x1="332" y1="78" x2="332" y2="102" />
    <text class="label" x="332" y="104">−2</text>

    <!-- -1 -->
    <line class="tick" x1="366" y1="78" x2="366" y2="102" />
    <text class="label" x="366" y="104">−1</text>

    <!-- 0 -->
    <line class="tick major" x1="400" y1="68" x2="400" y2="112" />
    <text class="label zero" x="400" y="114">0</text>

    <!-- 1 -->
    <line class="tick" x1="434" y1="78" x2="434" y2="102" />
    <text class="label" x="434" y="104">1</text>

    <!-- 2 -->
    <line class="tick" x1="468" y1="78" x2="468" y2="102" />
    <text class="label" x="468" y="104">2</text>

    <!-- 3 -->
    <line class="tick" x1="502" y1="78" x2="502" y2="102" />
    <text class="label" x="502" y="104">3</text>

    <!-- 4 -->
    <line class="tick" x1="536" y1="78" x2="536" y2="102" />
    <text class="label" x="536" y="104">4</text>

    <!-- 5 -->
    <line class="tick major" x1="570" y1="72" x2="570" y2="108" />
    <text class="label major" x="570" y="110">5</text>

    <!-- 6 -->
    <line class="tick" x1="604" y1="78" x2="604" y2="102" />
    <text class="label" x="604" y="104">6</text>

    <!-- 7 -->
    <line class="tick" x1="638" y1="78" x2="638" y2="102" />
    <text class="label" x="638" y="104">7</text>

    <!-- 8 -->
    <line class="tick" x1="672" y1="78" x2="672" y2="102" />
    <text class="label" x="672" y="104">8</text>

    <!-- 9 -->
    <line class="tick" x1="706" y1="78" x2="706" y2="102" />
    <text class="label" x="706" y="104">9</text>

    <!-- 10 -->
    <line class="tick major" x1="740" y1="72" x2="740" y2="108" />
    <text class="label major" x="740" y="110">10</text>

    <!-- captions -->
    <text class="caption" x="60" y="38" text-anchor="start">Negative numbers</text>
    <text class="caption" x="740" y="38" text-anchor="end">Positive numbers</text>
  </g>
</svg>
